<?xml version="1.0" standalone="no"?>
<!DOCTYPE svg PUBLIC "-//W3C//DTD SVG 20010904//EN"
 "http://www.w3.org/TR/2001/REC-SVG-20010904/DTD/svg10.dtd">
<svg version="1.0" xmlns="http://www.w3.org/2000/svg"
 width="1126.000000pt" height="1126.000000pt" viewBox="0 0 1126.000000 1126.000000"
 preserveAspectRatio="xMidYMid meet">

<g transform="translate(0.000000,1126.000000) scale(0.100000,-0.100000)"
fill="#000000" stroke="none">
<path d="M6153 10184 c-48 -13 -121 -31 -162 -40 -40 -8 -81 -19 -90 -24 -9
-4 -56 -25 -106 -45 -247 -103 -351 -129 -424 -105 -20 6 -43 12 -51 14 -8 1
-35 8 -59 15 -60 17 -62 7 -4 -23 26 -15 57 -32 68 -39 91 -58 145 -72 200
-53 15 5 28 0 46 -18 32 -31 64 -38 105 -21 17 7 37 9 43 5 14 -8 101 7 115
21 6 5 21 9 35 9 15 0 47 7 73 14 25 8 49 12 52 9 3 -4 6 -1 6 5 0 6 -4 14
-10 17 -5 3 -15 15 -20 26 -9 16 -7 19 9 19 20 0 46 -20 53 -41 3 -9 28 -4 83
13 131 42 317 90 323 84 2 -3 -7 -7 -20 -11 -25 -7 -166 -50 -296 -90 -46 -14
-89 -25 -96 -25 -7 0 -27 -7 -45 -16 -57 -28 -268 -75 -339 -75 -19 0 -35 -6
-38 -14 -4 -10 -12 -11 -31 -4 -13 5 -38 9 -54 9 -16 0 -29 5 -29 10 0 6 -8
10 -18 10 -10 0 -27 8 -38 18 -10 10 -48 35 -84 57 -36 21 -85 51 -110 66 -25
15 -63 32 -85 39 -22 7 -60 21 -85 30 -25 10 -67 27 -95 38 -82 33 -111 35
-338 34 -215 -2 -281 -9 -342 -37 -16 -8 -67 -23 -112 -34 -88 -22 -198 -77
-387 -194 -114 -70 -298 -230 -410 -354 -53 -60 -120 -133 -150 -163 -29 -30
-66 -77 -81 -105 -16 -27 -32 -52 -36 -55 -30 -23 -153 -261 -193 -375 -20
-55 -44 -116 -55 -135 -10 -19 -21 -50 -25 -68 -3 -19 -12 -48 -20 -65 -38
-88 -85 -302 -89 -407 -2 -62 -7 -83 -30 -120 -16 -25 -51 -83 -79 -130 -27
-47 -60 -96 -73 -110 -13 -14 -38 -52 -55 -85 -28 -54 -31 -66 -27 -127 3 -42
14 -85 28 -115 13 -26 24 -51 24 -55 0 -8 15 -23 23 -23 24 -2 51 -18 46 -27
-4 -7 -2 -8 5 -4 6 4 9 11 6 15 -2 5 7 13 20 19 14 7 25 16 25 22 0 5 5 10 12
10 6 0 2 -10 -10 -23 -26 -28 -27 -58 -6 -141 10 -40 26 -72 47 -93 36 -39 32
-53 -7 -22 l-27 22 -62 -66 c-78 -81 -137 -153 -137 -165 0 -5 -9 -17 -21 -28
-31 -28 -42 -53 -46 -107 -4 -49 21 -122 38 -111 5 3 9 0 9 -5 0 -6 7 -11 16
-11 10 0 14 -5 10 -16 -3 -8 -2 -12 4 -9 6 3 10 -3 10 -14 0 -11 7 -24 15 -29
32 -18 44 -149 20 -221 -11 -34 -16 -83 -16 -151 1 -134 18 -166 145 -259 64
-48 131 -82 141 -73 3 4 5 2 3 -5 -2 -7 16 -29 40 -50 49 -44 62 -91 51 -183
-4 -30 -7 -110 -8 -178 -1 -102 2 -129 18 -160 10 -20 26 -68 36 -107 9 -38
25 -91 36 -117 10 -26 19 -55 19 -66 0 -10 12 -47 26 -83 22 -52 26 -80 26
-151 0 -47 4 -105 10 -128 20 -78 94 -130 185 -130 18 0 49 -7 70 -16 42 -18
67 -29 98 -39 21 -7 275 -23 275 -17 0 2 -15 21 -33 43 -47 54 -87 132 -91
173 -2 20 -8 41 -13 48 -6 7 -19 38 -28 68 -10 30 -22 63 -27 73 -5 10 -14 55
-19 100 -6 45 -12 93 -14 107 -15 80 -22 351 -10 371 6 8 4 10 -6 4 -12 -7
-12 -6 0 9 12 14 12 19 2 25 -8 5 3 11 30 15 23 4 43 5 45 3 2 -1 -7 -14 -19
-27 -23 -25 -24 -53 -5 -78 7 -8 7 -12 -1 -12 -6 0 -11 -7 -11 -16 0 -8 4 -13
8 -10 4 3 9 -10 9 -29 1 -18 5 -40 9 -47 16 -25 14 -44 -2 -23 -15 19 -15 18
-9 -10 5 -24 4 -27 -5 -15 -9 13 -11 12 -7 -5 2 -11 9 -19 15 -18 7 2 13 -11
14 -35 2 -58 2 -59 21 -80 16 -18 16 -20 1 -26 -16 -6 -16 -19 3 -80 3 -13 1
-16 -7 -11 -9 6 -10 3 -3 -10 6 -10 8 -26 6 -36 -4 -13 0 -19 11 -19 10 0 13
-6 9 -16 -3 -8 -12 -13 -19 -10 -21 8 -17 -12 5 -26 10 -6 17 -18 14 -25 -3
-7 -2 -21 2 -30 7 -17 8 -16 15 2 8 19 8 19 16 1 4 -10 3 -26 -3 -35 -8 -12
-5 -20 10 -34 20 -17 20 -18 1 -32 -19 -14 -19 -14 1 -11 11 2 31 0 45 -5 22
-6 20 -7 -12 -8 -35 -1 -38 -3 -38 -30 0 -16 7 -34 15 -41 8 -7 15 -17 15 -22
0 -26 107 -141 171 -184 39 -25 68 -48 65 -51 -9 -10 -132 -32 -211 -39 -44
-3 -99 -14 -122 -24 -23 -10 -66 -23 -95 -29 -47 -10 -113 -42 -108 -52 1 -2
-1 -16 -5 -31 -7 -26 -8 -27 -31 -11 -23 15 -27 14 -59 -9 -45 -32 -125 -107
-125 -117 0 -17 -55 -19 -73 -3 -15 13 -22 14 -38 4 -22 -14 -59 -1 -59 21 0
7 -4 6 -10 -3 -5 -8 -10 -10 -10 -4 0 7 -21 10 -57 9 -34 -1 -69 3 -85 12 -31
15 -44 16 -40 2 1 -5 -6 -4 -16 2 -15 10 -30 7 -75 -15 -31 -14 -61 -35 -66
-45 -6 -10 -13 -58 -17 -107 -5 -70 -3 -97 9 -127 9 -21 24 -68 33 -105 19
-78 38 -112 62 -112 9 0 33 -5 52 -10 30 -8 42 -21 74 -77 22 -38 42 -70 45
-73 4 -3 19 -27 35 -53 15 -27 34 -51 43 -54 12 -5 14 -18 8 -77 -3 -39 -10
-73 -14 -76 -12 -7 -19 -36 -29 -108 -5 -34 -6 -65 -2 -67 4 -2 21 0 39 5 17
5 31 5 31 0 0 -5 -13 -11 -29 -15 -15 -3 -37 -14 -47 -23 -11 -10 -38 -26 -62
-36 -24 -11 -47 -27 -53 -37 -7 -14 -72 -44 -89 -41 -3 0 -18 -10 -35 -22 -16
-13 -40 -26 -53 -30 -12 -4 -20 -11 -17 -16 3 -5 -4 -11 -15 -15 -11 -3 -20
-10 -20 -15 0 -5 -10 -12 -22 -16 -23 -7 -168 -151 -168 -166 0 -4 -13 -21
-30 -36 -16 -16 -30 -33 -30 -38 0 -5 -12 -23 -28 -39 -15 -17 -34 -42 -42
-56 -45 -76 -78 -126 -102 -152 -16 -17 -28 -36 -28 -43 0 -7 -6 -19 -13 -26
-6 -7 -25 -32 -41 -56 -16 -23 -32 -42 -35 -42 -4 0 -19 -24 -34 -52 -36 -68
-47 -86 -75 -114 -12 -13 -22 -29 -22 -36 0 -7 -14 -28 -30 -47 -17 -18 -30
-38 -30 -44 0 -5 -16 -32 -35 -58 -19 -27 -35 -53 -35 -59 0 -5 -11 -20 -25
-34 -14 -14 -25 -29 -25 -34 0 -5 -9 -17 -20 -27 -11 -10 -17 -22 -14 -26 3
-5 -9 -21 -26 -35 -17 -15 -29 -29 -26 -31 3 -3 -6 -16 -20 -30 -13 -13 -24
-28 -24 -34 0 -5 -5 -15 -10 -22 -41 -48 -50 -62 -50 -74 0 -19 -41 -73 -55
-73 -6 0 -22 -21 -35 -47 -13 -27 -45 -77 -72 -112 -26 -35 -48 -70 -48 -76 0
-7 -6 -18 -14 -24 -8 -7 -17 -25 -21 -40 -3 -15 -17 -39 -30 -53 -33 -36 -67
-97 -60 -109 4 -5 2 -9 -3 -9 -8 0 -23 -29 -59 -120 -8 -19 -16 -42 -18 -50
-33 -116 -44 -175 -44 -225 0 -33 -4 -76 -9 -95 -5 -19 -10 -81 -11 -137 l-3
-103 4365 0 4365 0 6 31 c3 17 6 52 6 76 0 39 2 44 18 39 28 -11 120 -68 173
-109 l49 -37 645 0 645 0 0 240 0 240 -59 0 c-74 0 -96 -17 -145 -110 -20 -38
-42 -70 -48 -70 -6 0 -8 -11 -4 -27 4 -19 4 -23 -3 -14 -8 13 -10 7 -27 -89
-1 -8 -6 -37 -11 -65 -9 -53 -22 -62 -88 -64 -27 0 -28 1 -13 13 16 12 16 13
-1 27 -9 9 -23 13 -30 11 -7 -2 -19 5 -27 17 -9 12 -20 19 -25 16 -5 -4 -9 -1
-9 5 0 6 -4 9 -9 6 -5 -3 -11 3 -14 14 -3 11 -1 18 4 14 5 -3 9 0 9 5 0 6 -4
11 -10 11 -19 0 -10 90 19 174 44 133 104 229 206 332 88 89 225 183 268 184
16 0 17 18 17 228 l0 229 -24 12 c-14 8 -30 10 -38 5 -11 -6 -11 -5 0 8 11 14
8 19 -27 39 -22 12 -37 27 -34 32 4 7 -1 8 -13 3 -10 -4 -15 -4 -12 0 9 8 -16
34 -32 34 -15 0 -61 36 -54 42 2 3 -9 8 -26 11 -18 4 -30 13 -30 22 0 8 -4 15
-10 15 -12 0 -100 87 -100 100 0 15 -51 61 -61 55 -5 -4 -9 -2 -9 4 0 19 -82
130 -109 147 -34 22 -168 162 -186 194 -7 14 -92 104 -187 202 -95 97 -207
216 -248 265 -41 48 -123 137 -182 197 -60 60 -108 115 -108 123 0 7 -8 17
-17 20 -20 7 -53 42 -53 55 0 9 -315 326 -436 437 -79 72 -111 95 -207 146
-27 14 -58 32 -70 40 -24 17 -57 20 -57 5 0 -5 18 -54 40 -109 39 -99 112
-359 104 -372 -2 -4 2 -9 10 -12 11 -4 12 2 5 31 -14 66 10 55 36 -15 27 -72
65 -109 65 -62 0 16 4 19 23 14 21 -6 21 -6 -3 14 -14 11 -22 22 -19 25 7 8
86 -33 111 -57 17 -16 17 -17 -2 -17 -11 0 -23 7 -26 15 -8 19 -24 19 -24 0 0
-8 13 -21 28 -29 16 -8 41 -31 56 -50 15 -20 33 -36 41 -36 8 0 20 -9 29 -21
8 -12 31 -32 51 -46 22 -15 34 -30 31 -39 -5 -14 14 -19 55 -15 10 1 23 -11
30 -29 8 -17 21 -30 31 -30 10 0 18 -4 18 -10 0 -5 -5 -10 -11 -10 -5 0 -7 -4
-4 -10 3 -5 15 -10 26 -10 13 0 24 -10 30 -30 12 -33 34 -42 24 -10 -4 11 -2
20 4 20 10 0 15 -22 14 -58 -1 -6 9 -12 21 -12 26 -1 45 -15 90 -69 38 -46 49
-76 17 -47 -11 10 -26 16 -33 14 -7 -3 11 -17 40 -33 52 -28 68 -55 33 -55
-11 0 -22 6 -24 13 -4 9 -6 9 -6 0 -1 -13 38 -39 53 -35 5 2 6 -4 3 -11 -3 -9
7 -23 24 -36 16 -12 29 -26 29 -31 0 -6 12 -29 26 -51 14 -23 23 -47 20 -54
-3 -9 0 -12 8 -9 12 5 36 -54 36 -90 0 -9 6 -16 14 -16 19 0 63 -37 54 -46 -4
-4 -14 -1 -23 6 -18 15 -18 12 -4 -29 6 -17 17 -31 24 -31 8 0 17 -9 20 -20 3
-11 11 -20 16 -20 6 0 7 5 4 10 -4 6 -1 18 7 27 11 15 11 16 -6 10 -15 -6 -17
-5 -8 6 7 8 8 18 4 23 -4 4 0 3 10 -4 9 -7 19 -24 22 -37 4 -15 16 -27 30 -31
26 -6 77 -54 58 -54 -7 0 -12 4 -12 8 0 10 -60 32 -88 32 -19 0 -20 -3 -12
-25 5 -14 7 -31 4 -39 -3 -7 2 -16 11 -20 10 -3 15 -12 11 -21 -9 -24 3 -43
41 -66 36 -23 39 -38 3 -19 -31 17 -36 5 -17 -36 20 -40 12 -68 -10 -38 -13
17 -14 16 -8 -17 5 -25 3 -39 -6 -44 -9 -6 -10 -3 -5 11 9 24 -4 11 -18 -18
-6 -13 -23 -25 -36 -26 -14 -2 -29 -8 -34 -12 -5 -5 1 -6 14 -3 17 4 21 2 18
-8 -5 -15 -21 -16 -51 -4 -13 6 -16 3 -11 -9 8 -20 -5 -20 -35 0 -19 14 -22
22 -17 49 6 28 3 35 -13 40 -16 5 -19 12 -15 38 4 24 3 28 -5 17 -6 -9 -11
-10 -11 -3 0 6 -3 20 -6 30 -5 15 -4 15 5 3 9 -13 11 -13 11 0 1 9 6 5 15 -10
8 -14 14 -19 15 -12 0 7 -17 28 -37 47 -32 29 -37 40 -34 71 2 24 -1 34 -8 30
-6 -4 -11 -2 -11 5 0 14 -30 38 -48 39 -8 0 0 -12 17 -26 17 -14 28 -31 24
-36 -4 -7 -1 -8 7 -3 8 5 11 3 9 -4 -6 -17 -16 -12 -54 26 -24 24 -29 34 -20
46 7 10 17 12 33 6 32 -12 18 7 -19 26 -17 9 -29 24 -29 35 0 12 -7 20 -16 20
-11 0 -15 6 -11 20 4 15 0 20 -14 20 -10 0 -19 4 -19 9 0 5 -9 13 -20 16 -24
8 -26 22 -4 27 9 2 -4 13 -33 28 -44 24 -48 29 -45 59 3 26 0 34 -17 38 -12 3
-21 13 -21 23 0 9 -12 23 -27 30 -26 12 -27 13 -8 21 19 7 7 13 -21 10 -6 -1
-19 9 -30 20 -19 22 -19 22 4 10 12 -6 22 -9 22 -6 0 17 -32 63 -47 69 -14 6
-15 9 -3 16 8 5 21 5 31 -1 11 -5 20 -5 23 0 3 5 -6 12 -22 15 -15 4 -35 9
-45 12 -15 5 -17 1 -11 -23 l6 -28 -23 22 c-18 18 -21 25 -11 35 17 17 15 31
-4 24 -17 -6 -67 41 -58 55 3 5 1 9 -5 9 -12 0 -61 47 -61 59 0 5 -7 15 -16
22 -15 12 -14 14 7 20 21 5 20 7 -13 14 -21 4 -38 11 -38 16 0 5 -5 9 -10 9
-16 0 8 -41 38 -67 20 -17 23 -23 11 -23 -22 0 -69 42 -69 62 0 9 -5 20 -11
24 -8 5 -10 -2 -7 -23 3 -25 1 -29 -14 -25 -13 3 -16 -1 -14 -15 3 -11 1 -25
-3 -32 -5 -8 -11 8 -15 38 -4 28 -9 58 -12 66 -4 8 -1 15 4 15 6 0 14 -9 17
-21 4 -11 9 -18 12 -16 10 10 -18 47 -36 47 -13 0 -21 14 -31 53 -20 80 -50
217 -60 267 -25 140 -57 253 -112 399 -50 132 -58 148 -127 239 -31 41 -62 85
-69 98 -7 13 -34 41 -59 61 -25 21 -53 46 -62 56 -8 9 -26 17 -39 17 -13 0
-20 4 -17 10 4 6 -7 10 -24 10 -17 0 -31 5 -31 11 0 16 -192 3 -385 -26 -218
-33 -496 -65 -605 -68 -25 -1 -48 -6 -52 -12 -4 -5 -25 -8 -46 -6 -22 1 -55
-4 -75 -13 -39 -16 -149 -39 -272 -57 -44 -6 -84 -13 -88 -16 -5 -3 -28 -6
-50 -8 -23 -1 -71 -5 -107 -9 -65 -7 -65 -7 -25 7 22 8 92 24 155 36 63 12
117 26 118 32 2 5 15 9 28 9 13 0 52 11 86 25 34 14 67 25 74 25 6 0 14 7 18
15 3 8 11 14 18 13 6 -2 14 6 16 16 4 18 3 18 -24 -1 -16 -10 -47 -26 -69 -35
-48 -19 -362 -102 -492 -129 -51 -11 -104 -24 -118 -29 -15 -6 -45 -10 -68
-10 -31 0 -38 -3 -27 -10 11 -7 7 -10 -17 -10 -17 0 -35 -5 -38 -10 -4 -6 -10
-8 -14 -6 -4 3 -46 -4 -92 -15 -170 -41 -306 -62 -424 -64 -66 -1 -140 -6
-165 -9 -25 -4 -67 -9 -95 -11 -27 -3 -79 -8 -115 -11 -36 -4 -69 -10 -75 -14
-8 -7 -132 -15 -172 -11 -18 1 -16 41 2 41 8 0 15 5 15 10 0 6 5 10 11 10 5 0
7 -5 3 -11 -7 -12 73 -3 91 11 12 9 46 7 64 -4 7 -5 16 -4 20 1 3 6 125 20
271 32 396 32 501 42 540 51 l35 8 -34 1 c-33 1 -105 -6 -301 -30 -47 -6 -267
-14 -489 -19 -387 -8 -450 -14 -416 -38 15 -11 35 -50 35 -69 0 -15 -2 -14
-15 3 -8 10 -15 27 -15 37 0 10 -4 15 -10 12 -6 -4 -10 5 -10 19 0 14 -5 25
-11 24 -7 -2 -15 8 -19 22 -4 14 -29 68 -57 121 -39 76 -47 98 -37 107 15 14
28 16 20 3 -8 -12 55 10 71 25 7 7 9 14 6 18 -4 3 -1 6 5 6 7 0 12 -4 12 -8 0
-5 11 -14 25 -20 24 -11 25 -10 15 7 -15 29 -13 31 20 27 21 -2 30 1 30 11 0
8 5 11 10 8 6 -3 10 -2 10 4 0 6 7 8 15 5 8 -4 26 1 38 9 17 11 28 12 41 5 14
-8 17 -8 11 2 -4 7 -2 16 6 21 20 12 31 11 23 -3 -5 -7 -3 -8 7 -2 20 12 40
14 33 3 -3 -5 -10 -6 -16 -3 -7 5 -8 2 -3 -6 6 -10 13 -8 27 10 15 19 29 24
67 24 31 1 47 5 44 12 -2 6 3 14 11 17 9 4 16 3 16 -2 0 -9 30 -8 47 2 6 4 13
0 16 -7 5 -12 11 -12 31 -3 14 7 26 15 26 19 0 4 21 8 48 8 26 1 57 1 69 2 12
0 23 8 26 19 3 11 11 19 19 18 10 0 10 -2 1 -6 -24 -9 -13 -22 15 -16 15 3 33
6 40 6 6 0 12 4 12 9 0 5 4 7 9 4 4 -3 23 -1 42 4 22 7 35 7 37 0 2 -6 10 -6
23 0 17 10 48 16 124 24 17 2 30 5 30 6 0 1 29 3 65 6 36 2 81 9 100 14 19 5
85 16 145 25 61 9 138 21 172 27 35 5 69 8 77 5 8 -3 22 1 33 8 23 18 37 19
27 3 -6 -10 -5 -10 7 -1 8 7 49 14 92 17 52 3 82 9 93 20 8 9 26 16 39 16 13
0 27 5 30 10 4 6 11 8 16 4 15 -9 69 16 69 31 0 8 6 16 13 19 20 9 -64 -5
-118 -19 -80 -22 -387 -64 -455 -63 -14 0 -41 -3 -60 -7 -19 -3 -42 -7 -50 -9
-9 -1 -20 -5 -25 -8 -14 -8 -99 -8 -112 0 -5 4 -13 14 -16 22 -4 12 -6 11 -6
-2 -1 -10 -5 -18 -10 -18 -5 0 -7 9 -4 20 6 22 40 23 36 2 -2 -7 7 -12 20 -12
17 0 19 2 7 10 -29 18 5 28 110 33 58 3 137 10 175 17 125 19 492 60 548 60
62 0 97 11 219 69 48 22 91 41 95 41 14 1 92 57 87 63 -3 3 8 13 25 23 33 20
44 48 14 37 -10 -4 -24 -13 -32 -21 -11 -11 -15 -11 -22 0 -7 11 -9 11 -9 -1
0 -7 -6 -11 -13 -8 -21 8 -82 -8 -80 -21 4 -18 -17 -15 -23 3 -5 13 -9 13 -23
-3 -9 -10 -24 -20 -33 -20 -42 -4 -48 -6 -48 -14 0 -4 -16 -8 -36 -8 -21 0
-33 -4 -29 -10 3 -5 1 -10 -4 -10 -6 0 -11 5 -11 10 0 6 -9 10 -21 10 -13 0
-18 -4 -13 -12 5 -8 0 -9 -14 -6 -15 4 -22 2 -22 -8 0 -8 -4 -14 -10 -14 -5 0
-10 5 -10 10 0 6 -5 10 -11 10 -5 0 -7 -4 -4 -10 3 -6 2 -10 -4 -10 -5 0 -12
6 -14 13 -4 9 -7 9 -14 -1 -5 -6 -33 -13 -63 -15 -39 -3 -55 -8 -59 -20 -4
-12 -10 -14 -21 -7 -20 13 -60 12 -60 -1 0 -6 -6 -9 -12 -6 -7 2 -12 11 -10
18 1 9 -3 7 -12 -4 -8 -10 -17 -14 -20 -9 -3 5 -23 9 -46 9 -30 0 -40 -4 -41
-16 0 -10 -2 -12 -6 -3 -6 15 -33 16 -33 1 0 -8 -5 -7 -15 1 -13 11 -14 10 -9
-4 5 -14 3 -15 -20 -6 -17 6 -26 6 -26 0 0 -6 -10 -10 -22 -10 -19 0 -20 2 -8
10 10 7 11 10 2 10 -7 0 -15 -6 -18 -13 -5 -13 -53 -15 -73 -2 -6 3 -11 2 -11
-4 0 -5 -9 -8 -20 -6 -11 2 -20 -2 -20 -8 0 -7 -7 -4 -14 5 -18 25 -29 22 -21
-4 7 -23 7 -23 -9 -3 -12 15 -15 16 -16 5 0 -12 -2 -12 -9 -2 -7 11 -9 10 -15
-3 -3 -10 -11 -13 -18 -8 -7 4 -38 8 -68 8 -30 1 -61 5 -68 9 -7 4 -16 5 -20
1 -3 -3 0 -10 8 -15 9 -6 10 -10 3 -10 -6 0 -14 4 -17 9 -3 4 -16 8 -28 7 -13
-1 -26 2 -29 7 -4 5 -13 6 -20 1 -19 -11 -62 -12 -76 -1 -9 6 -15 4 -19 -7 -3
-9 -10 -16 -15 -16 -4 0 -6 7 -2 16 5 13 2 15 -13 7 -17 -8 -40 -9 -54 -3 -3
1 -41 4 -85 5 -44 2 -82 4 -85 5 -3 1 -12 2 -22 1 -9 -1 -19 3 -23 9 -10 16
-25 12 -26 -7 0 -16 -1 -16 -8 1 -7 17 -8 17 -23 2 -11 -10 -19 -12 -23 -6 -4
6 -11 8 -16 5 -5 -4 -9 -1 -9 4 0 6 -9 11 -20 11 -11 0 -20 -5 -20 -12 0 -9
-3 -9 -11 -1 -7 7 -21 8 -41 2 -32 -9 -85 -2 -106 14 -9 7 -11 6 -6 -8 6 -16
5 -16 -22 -2 -16 8 -35 12 -42 9 -11 -3 -12 0 -3 16 10 19 9 20 -19 12 -17 -5
-30 -5 -30 -1 0 9 -63 6 -78 -2 -4 -3 -14 -1 -22 5 -12 8 -12 9 3 4 9 -3 17
-1 17 5 0 6 -16 8 -45 3 -32 -4 -45 -3 -45 5 0 7 -4 9 -10 6 -5 -3 -19 -1 -30
5 -17 9 -19 8 -14 -7 5 -16 4 -16 -6 0 -8 13 -19 17 -36 13 -18 -5 -24 -2 -25
11 0 16 -2 15 -9 -2 -5 -11 -9 -14 -9 -7 -1 7 -5 10 -11 7 -6 -3 -10 0 -10 7
0 9 -3 9 -10 -2 -6 -10 -10 -11 -10 -2 0 19 -20 14 -21 -5 0 -12 -5 -8 -13 11
-7 16 -16 24 -19 19 -8 -12 -53 -9 -50 3 1 5 -18 9 -43 8 -24 -1 -56 5 -70 12
-14 8 -30 11 -35 8 -5 -3 -9 0 -9 5 0 6 -20 11 -46 11 -27 0 -43 4 -39 10 9
14 -8 12 -24 -2 -11 -11 -13 -10 -8 5 5 13 1 17 -16 18 -12 0 -31 3 -42 5 -11
3 -32 5 -46 5 -15 -1 -32 6 -39 14 -7 8 -16 12 -22 9 -5 -3 -24 1 -43 10 -18
9 -41 13 -51 9 -10 -4 -21 0 -28 9 -7 9 -27 19 -46 22 -19 3 -40 12 -46 20 -6
9 -19 16 -28 16 -10 0 -27 5 -39 12 -12 7 -33 11 -47 10 -20 -2 -22 -1 -10 7
12 8 8 11 -18 11 -18 0 -31 4 -27 9 3 5 1 12 -5 16 -5 3 -10 0 -10 -7 0 -10
-2 -10 -9 1 -5 7 -14 10 -20 7 -6 -4 -11 -2 -11 4 0 12 -48 34 -68 31 -7 -1
-12 2 -11 6 5 27 -2 33 -21 23 -16 -8 -20 -8 -20 4 0 17 -24 28 -46 19 -12 -4
-15 -2 -12 8 7 20 -10 49 -29 49 -12 0 -13 3 -4 14 8 10 7 20 -4 43 -8 16 -13
39 -10 51 2 13 0 20 -6 17 -5 -4 -14 -3 -21 1 -7 5 -5 12 8 22 16 13 17 14 2
9 -17 -6 -23 10 -21 61 1 6 -4 12 -9 12 -7 0 -7 4 0 13 6 6 13 29 17 49 4 23
11 35 18 31 6 -4 8 0 4 10 -22 54 -22 53 -5 39 11 -9 18 -10 23 -2 3 5 -4 14
-17 19 -13 6 -19 10 -15 10 5 1 1 8 -7 17 -9 8 -14 20 -11 25 9 13 23 11 28
-3 2 -7 3 -5 2 5 -4 22 11 22 19 1 4 -9 9 -14 13 -11 3 4 1 13 -6 21 -8 10 -9
21 -1 41 6 15 8 30 5 33 -3 3 -5 -1 -6 -9 0 -8 -5 0 -10 16 -5 19 -5 31 1 33
13 5 13 32 0 32 -5 0 -10 7 -10 15 0 18 5 18 31 5 23 -13 25 -4 4 16 -8 9 -19
13 -24 9 -5 -3 -12 -1 -16 5 -5 9 41 16 69 11 5 -1 4 5 -4 13 -7 9 -19 16 -27
16 -9 0 -13 8 -11 22 2 11 -3 23 -11 26 -8 3 -11 0 -7 -7 4 -6 3 -11 -3 -11
-15 0 -21 14 -11 29 4 8 17 12 29 8 23 -6 27 3 10 20 -7 7 -6 15 6 27 9 9 13
21 9 27 -4 8 -3 9 4 5 7 -4 12 -3 12 3 0 5 -4 13 -10 16 -5 3 -10 11 -10 16 0
6 5 7 10 4 6 -3 10 -1 10 4 0 6 -4 11 -10 11 -15 0 1 63 19 77 14 10 14 13 -3
32 -18 20 -18 22 -2 40 9 10 14 25 10 35 -5 12 -2 15 11 10 16 -7 16 -5 -1 21
-17 26 -17 28 -2 23 12 -5 15 -3 11 8 -3 8 -12 13 -20 10 -9 -4 -13 -1 -10 6
2 7 9 12 15 11 5 -1 8 7 4 19 -5 20 -6 20 -18 3 -8 -10 -16 -16 -19 -13 -3 2
5 13 16 24 16 14 23 15 26 7 3 -7 9 -13 15 -13 6 0 6 6 -2 15 -6 8 -9 19 -5
25 8 13 -8 13 -21 0 -7 -7 -11 -1 -11 20 0 27 2 29 17 15 13 -11 19 -12 28 -3
17 17 15 28 -6 28 -10 0 -21 3 -24 6 -8 7 17 55 34 65 10 7 10 11 0 21 -18 18
-15 28 8 28 12 0 20 7 20 17 0 15 2 14 16 -3 15 -19 15 -19 11 2 -4 20 -1 20
76 -12 44 -19 99 -46 121 -61 23 -16 48 -31 57 -35 20 -8 147 -94 172 -116 10
-9 48 -23 85 -33 36 -9 69 -23 73 -30 4 -8 28 -59 54 -114 75 -159 154 -244
291 -314 122 -62 327 -87 361 -44 6 8 31 19 55 25 24 5 52 17 63 27 11 10 35
24 53 31 18 7 36 20 41 28 5 9 24 21 41 27 25 8 40 25 64 71 18 33 42 74 54
92 12 17 30 44 40 60 10 15 22 52 26 82 18 145 40 190 92 190 14 0 35 5 46 11
30 16 96 -5 108 -34 5 -12 23 -58 40 -101 32 -84 95 -192 139 -240 47 -51 139
-116 218 -154 76 -36 81 -37 188 -36 l110 0 90 46 c97 49 157 103 220 198 20
30 43 70 50 90 7 19 22 60 34 90 11 30 18 62 15 72 -8 27 23 64 65 76 22 7 55
30 77 53 22 22 56 52 77 65 21 14 35 29 33 33 -3 5 13 21 37 36 23 16 78 61
122 101 223 202 345 285 387 263 15 -8 17 -13 8 -19 -9 -6 -9 -9 0 -12 12 -4
32 -137 49 -338 6 -69 16 -165 21 -215 5 -49 14 -142 20 -205 19 -194 25 -206
112 -201 37 2 47 -1 51 -16 3 -10 11 -92 17 -183 7 -91 15 -169 19 -175 9 -14
4 -208 -7 -280 -5 -33 -19 -95 -32 -137 -13 -43 -21 -81 -17 -84 7 -8 66 -7
107 1 64 12 240 105 251 133 5 12 8 151 7 310 -1 241 1 295 15 337 22 68 30
505 9 505 -5 0 -14 -44 -21 -97 -20 -150 -64 -243 -131 -278 -38 -19 -64 -19
-28 1 32 17 53 54 62 104 3 19 8 46 11 60 6 28 6 443 0 505 -3 22 -7 50 -10
62 -3 12 -1 24 4 27 5 4 12 -7 16 -24 4 -17 13 -36 20 -44 8 -8 19 -45 25 -82
6 -38 13 -70 16 -73 2 -2 4 29 5 70 0 51 3 68 9 54 7 -17 9 -15 9 12 1 52 20
48 27 -7 7 -50 31 -79 54 -65 10 6 44 15 71 19 9 1 24 10 33 19 10 9 24 17 31
17 8 0 25 10 39 22 14 13 43 36 65 52 26 19 50 51 75 100 31 62 36 79 34 139
-1 45 -4 64 -10 55 -8 -10 -11 -10 -15 0 -2 6 -9 10 -14 6 -5 -3 -9 2 -9 11 0
8 -11 20 -25 27 -13 6 -22 14 -20 19 9 14 -36 21 -53 8 -9 -7 -14 -10 -10 -5
12 14 -19 36 -51 36 -17 0 -31 4 -31 10 0 5 -6 9 -12 7 -7 -1 -12 3 -11 9 1 6
-9 10 -22 8 -14 -1 -25 2 -25 7 0 5 20 9 45 9 37 0 47 4 61 25 9 14 27 28 41
31 17 5 21 10 14 17 -24 24 -9 53 62 122 98 96 107 112 107 185 0 64 -9 90
-44 128 -61 66 -88 92 -95 92 -4 0 -16 9 -26 20 -15 16 -29 20 -71 18 -40 -2
-50 -6 -42 -15 7 -9 7 -13 -1 -13 -19 0 -34 52 -22 72 6 10 11 24 11 32 0 8 8
21 18 28 18 12 24 42 24 108 0 24 -18 72 -44 115 -26 42 -73 110 -88 125 -8 8
-24 32 -35 53 -11 20 -23 37 -27 37 -5 0 -8 6 -8 13 0 8 -13 26 -29 40 -21 19
-36 48 -51 99 -12 40 -25 84 -31 98 -19 52 -39 143 -39 183 0 23 -5 60 -10 82
-5 22 -12 76 -15 120 -5 73 -14 110 -62 270 -28 93 -130 262 -213 350 -26 28
-62 67 -81 87 -36 39 -186 158 -200 158 -4 0 -35 18 -68 40 -55 36 -205 113
-286 145 -64 26 -262 93 -307 104 -113 27 -138 31 -233 37 -188 12 -315 6
-529 -26 -38 -6 -71 -9 -72 -7 -8 8 207 47 314 58 127 13 384 -1 482 -26 30
-7 89 -21 132 -30 42 -9 89 -24 105 -32 15 -8 42 -17 58 -20 40 -6 234 -99
263 -126 12 -11 22 -15 22 -9 0 6 -15 23 -34 37 -19 15 -33 32 -31 38 5 17
-195 161 -330 237 -71 40 -208 91 -285 106 -41 8 -157 20 -257 26 -105 6 -180
15 -177 20 4 6 -46 8 -120 7 -94 -2 -147 -8 -213 -25z m267 -4 c-8 -5 -26 -9
-40 -9 l-25 1 25 8 c14 4 32 8 40 9 13 1 13 0 0 -9z m-95 -19 c-12 -12 -65
-26 -65 -17 0 3 15 10 33 15 43 12 42 12 32 2z m298 -108 c-7 -2 -19 -2 -25 0
-7 3 -2 5 12 5 14 0 19 -2 13 -5z m-50 -10 c-7 -2 -21 -2 -30 0 -10 3 -4 5 12
5 17 0 24 -2 18 -5z m230 0 c-7 -2 -21 -2 -30 0 -10 3 -4 5 12 5 17 0 24 -2
18 -5z m-826 -19 c-3 -3 -12 -4 -19 -1 -8 3 -5 6 6 6 11 1 17 -2 13 -5z m1103
-21 c33 -9 60 -20 60 -25 0 -5 -8 -7 -17 -4 -10 2 -43 10 -73 16 -30 6 -62 15
-70 20 -25 16 33 12 100 -7z m156 -49 c38 -14 78 -28 89 -31 35 -10 184 -85
196 -99 16 -20 -2 -18 -48 6 -78 40 -219 102 -265 116 -26 8 -50 19 -53 24 -9
15 6 12 81 -16z m-1178 -2 c6 -18 -15 -14 -22 4 -4 10 -1 14 6 12 6 -2 14 -10
16 -16z m-1785 -69 c-7 -2 -19 -2 -25 0 -7 3 -2 5 12 5 14 0 19 -2 13 -5z
m-93 -13 c0 -5 -17 -12 -37 -15 -91 -16 -245 -77 -315 -126 -14 -11 -30 -19
-35 -19 -13 1 39 39 77 57 19 9 42 22 50 29 21 17 88 42 175 65 85 21 85 21
85 9z m47 4 c-3 -3 -12 -4 -19 -1 -8 3 -5 6 6 6 11 1 17 -2 13 -5z m2782 -64
c52 -12 100 -19 108 -16 7 3 23 1 36 -4 12 -5 69 -23 126 -41 57 -18 112 -41
122 -52 9 -10 22 -16 28 -12 6 3 14 0 17 -9 3 -8 12 -12 20 -9 9 3 14 -2 14
-15 0 -22 20 -42 20 -20 1 9 4 9 13 -3 7 -8 27 -24 45 -34 18 -11 38 -32 45
-47 6 -16 16 -28 20 -28 5 0 5 -4 2 -10 -3 -5 -1 -10 5 -10 6 0 15 -11 22 -25
6 -13 15 -22 19 -19 5 3 9 2 9 -3 0 -4 -18 -16 -40 -25 -29 -12 -40 -22 -40
-38 0 -15 5 -20 14 -17 8 3 25 -5 38 -18 13 -14 29 -25 36 -25 6 0 12 -2 12
-4 0 -2 3 -11 6 -19 4 -11 -1 -13 -20 -10 -33 7 -79 -5 -71 -17 3 -6 15 -10
26 -10 27 0 24 -18 -5 -26 -33 -8 -48 3 -40 28 4 15 2 19 -7 14 -8 -3 -22 -9
-31 -12 -17 -6 -22 -17 -19 -36 2 -14 -49 -8 -101 12 -130 50 -410 85 -632 78
l-153 -5 0 23 c0 19 7 23 46 29 60 9 82 21 74 41 -5 14 -3 15 17 4 14 -7 41
-10 71 -6 33 4 49 2 49 -5 0 -7 13 -9 38 -5 40 7 47 7 107 5 22 -1 51 -1 65 0
45 1 78 -4 73 -11 -2 -5 0 -8 6 -8 5 0 11 5 13 12 6 17 47 17 92 2 21 -8 58
-14 82 -14 39 0 44 2 43 23 -1 16 -2 18 -6 5 -3 -14 -15 -18 -50 -18 -26 0
-43 3 -40 7 4 3 20 6 37 5 41 -1 29 14 -17 22 -21 3 -50 17 -65 31 -28 24 -37
55 -17 55 6 0 2 15 -10 33 -11 17 -25 31 -31 30 -5 -2 -10 5 -10 15 0 14 -2
15 -10 2 -9 -13 -10 -13 -11 0 -1 8 -1 19 0 24 1 4 -4 15 -11 24 -10 12 -10
14 -1 8 8 -4 11 -2 8 6 -3 7 -26 22 -50 33 -25 11 -45 23 -45 27 0 5 -8 8 -17
8 -15 0 -16 -2 -3 -10 13 -8 12 -10 -2 -10 -10 0 -18 6 -18 14 0 28 -89 47
-180 37 -14 -1 -45 3 -70 9 -25 6 -75 10 -113 8 -43 -2 -66 0 -64 7 7 22 58
34 155 36 61 1 99 6 95 12 -3 5 3 7 13 3 11 -3 62 -15 113 -26z m-2194 -201
c147 -30 276 -79 364 -137 77 -51 184 -159 221 -226 17 -30 38 -60 45 -66 8
-7 16 -24 16 -39 1 -16 3 -19 6 -9 2 10 10 15 19 11 8 -3 20 -3 28 0 11 5 11
13 0 58 -13 49 -19 150 -7 122 2 -7 13 -13 23 -13 11 0 20 -10 24 -27 21 -86
29 -146 29 -211 -1 -39 2 -70 6 -68 4 3 13 -10 20 -27 8 -18 29 -65 49 -106
28 -60 32 -75 21 -82 -10 -6 -10 -9 -1 -9 8 0 12 -16 12 -48 0 -39 -4 -49 -22
-57 -16 -7 -24 -20 -26 -42 -2 -21 -9 -33 -18 -33 -8 0 -14 -7 -14 -15 0 -8 5
-15 10 -15 6 0 10 -9 10 -20 0 -11 -4 -20 -9 -20 -5 0 -4 -15 2 -35 7 -25 13
-32 20 -23 5 8 6 2 2 -17 -4 -16 -8 -58 -10 -92 -2 -34 -11 -75 -19 -92 -18
-35 -21 -61 -5 -61 5 0 7 -5 4 -10 -4 -6 -11 -8 -16 -5 -5 4 -6 -2 -2 -11 5
-14 3 -16 -11 -11 -10 4 -24 7 -31 7 -8 0 -11 7 -8 21 4 14 0 25 -11 31 -11 6
-14 16 -10 34 3 13 2 24 -2 24 -12 0 -12 83 0 91 5 4 5 24 2 45 -6 28 -10 34
-17 23 -7 -11 -9 -10 -7 6 3 44 -3 64 -22 70 -11 3 -20 11 -20 16 0 11 22 8
31 -5 8 -10 29 1 29 15 0 6 -4 7 -10 4 -5 -3 -10 -1 -10 5 0 6 7 13 15 16 9 4
13 15 11 28 -4 23 17 60 27 49 4 -3 7 3 7 14 0 11 18 38 39 61 35 37 51 82 29
82 -4 0 -13 19 -20 43 -25 87 -145 222 -207 233 -37 6 -124 55 -151 84 -41 44
-349 130 -464 130 -37 0 -44 3 -49 23 -2 12 -8 31 -13 42 -8 19 -7 19 19 2 30
-19 41 -22 32 -7 -3 6 3 10 15 10 12 0 18 4 15 10 -4 6 1 7 11 3 11 -4 13 -8
6 -11 -7 -2 -12 -8 -12 -13 0 -14 147 -11 154 4 5 10 7 10 12 0 3 -7 23 -13
44 -13 36 0 187 -68 292 -132 100 -62 25 54 -113 173 -41 35 -77 57 -169 104
-29 15 -98 37 -190 61 -36 9 -72 23 -81 31 -9 8 -30 13 -45 11 -19 -2 -28 1
-26 10 1 6 -5 12 -14 12 -8 0 -13 4 -10 9 5 8 29 5 151 -20z m3034 -234 c-1
-21 -44 -99 -54 -97 -15 4 -12 74 3 94 15 18 52 20 51 3z m-2952 -11 c-3 -3
-12 -4 -19 -1 -8 3 -5 6 6 6 11 1 17 -2 13 -5z m2888 -105 c14 -22 -44 -129
-71 -129 -34 0 3 81 48 106 18 11 19 13 6 14 -10 0 -18 5 -18 10 0 13 27 13
35 -1z m-2985 -63 c0 -3 -4 -8 -10 -11 -5 -3 -10 -1 -10 4 0 6 5 11 10 11 6 0
10 -2 10 -4z m54 -2 c25 -9 10 -22 -20 -16 -19 3 -22 7 -12 13 16 11 13 10 32
3z m-1544 -81 c0 -13 -3 -13 -15 -3 -8 7 -15 19 -15 27 0 13 3 13 15 3 8 -7
15 -19 15 -27z m1585 -6 c89 -26 239 -95 308 -144 26 -18 51 -33 57 -33 5 0
28 -20 52 -45 24 -25 47 -45 51 -45 14 0 37 -28 37 -45 0 -26 -29 -29 -49 -6
-10 11 -29 21 -42 21 -12 0 -45 19 -72 41 -64 55 -179 119 -212 119 -7 0 -15
7 -18 14 -3 8 -25 20 -49 26 -24 7 -61 20 -84 30 -70 32 -156 41 -466 49 -21
1 -28 6 -28 22 0 20 3 20 233 15 159 -3 248 -9 282 -19z m-620 -6 c-3 -6 -11
-11 -17 -11 -6 0 -6 6 2 15 14 17 26 13 15 -4z m75 4 c-27 -14 -36 -13 -25 4
3 6 16 11 28 11 21 -1 21 -1 -3 -15z m2820 6 c0 -5 11 -11 25 -13 13 -3 22 -1
19 3 -7 12 12 11 34 -1 9 -5 53 -21 97 -36 113 -36 145 -52 155 -77 10 -29 -3
-42 -28 -28 -11 6 -28 8 -36 5 -9 -3 -16 -2 -16 3 0 5 -37 15 -82 22 -46 7
-86 18 -90 24 -5 8 -8 7 -8 -3 0 -13 -1 -13 -10 0 -6 10 -10 11 -10 3 0 -7
-12 -13 -27 -13 -21 0 -24 3 -14 9 9 6 -30 10 -105 12 -175 4 -220 4 -313 -4
-46 -4 -81 -3 -77 1 4 4 13 7 19 7 7 1 11 6 10 13 -2 7 1 12 7 12 6 0 10 4 10
10 0 5 -8 7 -17 4 -16 -5 -16 -4 1 6 10 7 48 14 85 16 36 2 84 5 106 8 22 3
59 0 83 -6 38 -9 45 -8 58 8 9 11 13 13 9 7 -4 -9 1 -13 14 -13 12 0 21 4 21
9 0 8 18 14 68 20 6 0 12 -3 12 -8z m-3832 -33 c14 -14 16 -42 2 -33 -14 9
-32 45 -22 45 4 0 13 -5 20 -12z m2106 -138 c7 0 26 -18 41 -40 15 -22 34 -40
42 -40 8 0 12 -4 8 -9 -3 -5 -1 -12 5 -16 18 -11 0 -26 -19 -15 -10 5 -22 6
-26 2 -4 -4 -5 2 -3 13 1 11 -3 20 -9 21 -7 1 -19 2 -27 3 -8 0 -17 15 -21 31
-4 18 -11 27 -18 23 -6 -4 -8 0 -4 10 3 9 0 18 -9 21 -9 3 -12 10 -9 16 4 6
12 5 21 -5 9 -8 21 -15 28 -15z m-1976 -156 c-4 -3 -12 5 -18 18 -12 22 -12
22 6 6 10 -10 15 -20 12 -24z m1807 -3 c0 -23 -42 -24 -48 0 -5 17 -1 20 21
17 15 -2 27 -9 27 -17z m-1777 -31 c7 -11 12 -22 12 -25 0 -3 9 -14 19 -24 11
-11 27 -35 37 -53 9 -18 12 -28 7 -23 -19 20 -103 134 -103 139 0 13 16 5 28
-14z m1417 9 c6 -1 42 0 80 1 85 2 161 -8 197 -26 15 -8 33 -11 42 -8 8 3 23
-3 33 -15 18 -21 39 -30 28 -11 -3 6 -2 10 3 10 6 0 12 -7 16 -15 3 -8 11 -14
18 -13 7 2 12 -5 12 -14 -1 -14 2 -16 17 -7 16 8 19 6 19 -9 0 -25 -35 -56
-55 -48 -9 3 -13 11 -9 17 3 6 -4 4 -17 -4 -18 -12 -33 -14 -64 -7 -22 5 -74
14 -115 21 -98 15 -154 25 -215 39 -114 25 -200 32 -377 31 l-188 0 0 23 c0
24 0 24 168 30 92 4 199 3 237 -2 71 -10 90 -8 80 8 -5 7 27 7 90 -1z m421
-16 c-7 -7 -26 7 -26 19 0 6 6 6 15 -2 9 -7 13 -15 11 -17z m54 -18 c0 -22
-37 -38 -58 -26 -16 10 -16 10 1 11 9 0 16 3 16 8 -3 17 2 22 21 22 11 0 20
-7 20 -15z m-987 -66 c29 15 125 10 132 -7 8 -21 -3 -32 -31 -32 -18 0 -23 4
-18 13 6 9 4 9 -7 1 -8 -7 -29 -15 -47 -19 -24 -5 -33 -3 -38 9 -3 9 -15 16
-25 16 -11 0 -19 7 -19 16 0 14 3 14 15 4 12 -10 21 -10 38 -1z m1004 -76 c-9
-9 -20 -14 -24 -10 -3 4 2 14 13 21 10 8 21 12 23 10 3 -2 -3 -12 -12 -21z
m-842 -73 c6 -1 26 -4 45 -6 92 -7 157 -15 180 -23 14 -5 52 -17 85 -26 153
-44 163 -51 151 -100 -6 -22 -11 -26 -29 -22 -151 38 -254 70 -263 82 -14 19
-28 19 -20 0 8 -22 -17 -18 -31 4 -10 16 -25 19 -94 20 -44 1 -85 4 -90 7 -5
3 -24 1 -42 -4 -24 -7 -43 -6 -67 4 -19 8 -36 11 -39 6 -9 -13 -41 -23 -41
-12 0 5 -14 5 -32 0 -32 -9 -95 -13 -130 -9 -9 1 -20 9 -22 16 -3 8 -2 12 3 8
5 -3 16 2 24 10 9 9 31 14 54 14 21 -1 55 6 77 15 46 19 47 19 44 4 -2 -6 6
-14 17 -16 16 -4 17 -2 7 11 -11 13 -10 16 5 19 21 4 193 3 208 -2z m-425 -30
c0 -5 -5 -10 -11 -10 -5 0 -7 5 -4 10 3 6 8 10 11 10 2 0 4 -4 4 -10z m-93
-56 c-3 -3 -12 -4 -19 -1 -8 3 -5 6 6 6 11 1 17 -2 13 -5z m1012 -77 c1 -5 -3
-5 -9 -2 -5 3 -10 16 -9 28 0 21 1 21 9 2 5 -11 9 -24 9 -28z m3054 -27 c3
-11 1 -18 -4 -14 -5 3 -9 13 -10 22 0 14 -2 13 -9 -3 -6 -15 -9 -16 -9 -4 -2
35 23 34 32 -1z m-8 -30 c3 -5 1 -10 -4 -10 -6 0 -11 5 -11 10 0 6 2 10 4 10
3 0 8 -4 11 -10z m75 -248 c16 -79 34 -151 40 -162 5 -10 10 -32 10 -49 0 -16
5 -33 10 -36 6 -3 10 -14 10 -24 0 -10 9 -28 20 -41 11 -13 20 -27 20 -31 0
-16 -22 -21 -31 -8 -8 12 -12 11 -23 -4 -14 -18 -15 -16 -18 15 -2 21 -8 33
-18 33 -9 0 -17 15 -22 40 -4 22 -10 51 -13 65 -5 20 -3 22 6 10 8 -12 9 -8 4
15 -4 17 -8 39 -9 50 -2 11 -8 37 -15 58 -7 21 -10 45 -7 53 3 8 -1 34 -8 57
-8 23 -19 73 -26 111 -11 57 -10 70 1 77 16 10 23 -14 69 -229z m-1960 23 c-7
-8 -18 -15 -24 -15 -6 0 -2 7 8 15 25 19 32 19 16 0z m-20 -32 c-1 -12 -29
-47 -34 -42 -7 7 13 49 24 49 5 0 10 -3 10 -7z m580 -45 c88 -21 199 -71 247
-110 64 -52 215 -214 226 -241 3 -9 11 -17 17 -17 5 0 10 -8 10 -19 0 -10 7
-24 15 -31 8 -7 15 -19 15 -26 0 -8 5 -14 10 -14 6 0 10 -5 10 -12 0 -6 11
-25 24 -42 13 -17 27 -42 31 -55 4 -13 25 -58 46 -100 44 -87 63 -133 61 -143
-1 -5 3 -8 8 -8 6 0 10 -6 10 -14 0 -7 10 -26 23 -42 12 -16 21 -30 19 -31 -6
-7 28 -71 52 -96 14 -15 26 -33 26 -38 0 -6 4 -8 9 -5 5 3 11 -4 15 -17 3 -12
18 -37 35 -55 52 -59 52 -59 -348 -380 -64 -50 -128 -104 -143 -119 -23 -22
-39 -27 -89 -29 -73 -4 -89 9 -114 95 -25 81 -107 223 -143 246 -34 22 -39 52
-7 47 66 -11 138 -13 146 -5 17 17 -22 119 -53 137 -14 9 -36 31 -47 49 -36
57 -124 134 -168 147 -36 11 -58 10 -160 -9 -65 -13 -154 -29 -198 -37 -152
-28 -220 -47 -241 -66 -26 -23 -68 -178 -58 -212 3 -11 20 -33 37 -47 l31 -26
-23 -29 c-58 -74 -129 -196 -140 -240 -18 -72 -34 -99 -57 -97 -51 7 -105 7
-164 0 -72 -8 -96 2 -103 44 -9 48 -39 108 -57 114 -10 3 -32 26 -49 51 -16
25 -48 58 -70 75 -45 32 -50 50 -24 103 15 32 15 39 -1 97 -21 72 -71 148
-111 168 -16 8 -87 17 -169 22 -78 5 -170 13 -206 19 -92 14 -195 12 -233 -4
-55 -23 -179 -172 -249 -299 -41 -74 -39 -87 10 -87 38 0 114 20 171 46 63 29
148 50 158 40 4 -4 -1 -12 -12 -18 -43 -24 -122 -113 -189 -213 -31 -47 -71
-157 -78 -215 -4 -29 -28 -38 -109 -39 -52 -1 -63 3 -145 55 -49 32 -102 64
-119 72 -16 9 -70 42 -119 74 -66 42 -85 59 -73 64 9 3 17 11 17 17 0 8 -3 8
-11 0 -7 -7 -18 -3 -35 14 -30 30 -27 41 3 14 21 -20 21 -20 19 3 0 13 -5 22
-11 20 -5 -2 -16 0 -23 5 -11 7 -11 14 1 43 11 27 12 38 2 51 -6 9 -15 14 -18
10 -4 -3 -7 -1 -7 6 0 7 6 11 13 8 18 -7 41 29 24 36 -7 3 -4 6 6 6 10 1 15 6
12 11 -4 6 -10 8 -15 5 -4 -3 -7 6 -6 20 0 15 6 23 13 21 6 -3 16 9 22 26 14
38 14 58 1 38 -8 -13 -10 -12 -10 3 0 10 11 22 25 27 14 5 25 12 25 14 0 3 -7
3 -16 -1 -14 -5 -15 -3 -5 16 7 12 17 19 24 15 7 -4 6 -1 -2 7 -10 11 -15 11
-18 2 -7 -18 -33 -16 -33 3 0 8 5 12 10 9 6 -3 10 -2 10 4 0 5 3 16 6 25 4 11
1 16 -10 16 -9 0 -16 5 -16 10 0 15 16 12 34 -6 14 -13 16 -14 16 0 0 8 -5 18
-12 22 -7 5 -3 11 13 17 20 8 21 11 7 14 -15 4 -16 8 -7 25 13 24 2 39 -12 18
-9 -13 -10 -13 -6 0 2 9 14 14 26 13 12 -2 19 1 16 7 -3 5 3 29 14 52 18 40
18 44 3 50 -14 5 -14 7 -2 8 12 0 12 3 -2 14 -19 14 -26 52 -8 41 6 -3 10 3
10 15 0 12 4 18 10 15 6 -3 9 9 7 32 -1 26 2 37 11 35 6 -1 12 4 12 12 0 14
67 76 82 76 4 0 8 7 8 16 0 20 22 42 38 36 6 -2 12 1 12 7 0 6 5 11 10 11 6 0
19 8 29 18 34 30 55 47 61 47 3 0 11 4 18 8 6 5 17 5 24 1 6 -4 8 -3 4 4 -3 6
9 15 31 22 21 7 44 17 50 22 7 6 20 8 28 4 9 -3 15 0 15 10 0 12 6 15 25 10
16 -4 25 -2 25 5 0 6 7 9 15 5 8 -3 15 0 15 7 1 7 5 6 13 -4 8 -10 23 -14 41
-12 22 3 27 1 23 -11 -4 -11 0 -14 14 -11 15 3 19 0 15 -10 -3 -8 -1 -15 4
-15 6 0 10 7 10 16 0 8 5 12 10 9 6 -4 10 5 10 19 0 14 5 26 10 26 6 0 11 10
11 23 1 16 2 18 6 5 2 -10 9 -18 14 -18 5 0 9 8 10 18 0 10 3 12 6 4 2 -6 9
-10 13 -7 5 3 18 -5 29 -17 18 -18 21 -19 21 -5 0 9 4 17 10 17 5 0 6 -8 3
-17 -5 -14 0 -12 24 7 18 14 32 30 32 37 1 6 10 15 21 18 11 3 20 12 20 18 0
7 4 6 10 -3 8 -12 12 -12 18 -3 7 11 122 17 222 13 8 0 38 2 65 5 37 5 46 4
35 -4 -12 -9 -10 -11 10 -12 59 -1 128 -9 165 -18 100 -24 214 -34 257 -23 24
6 62 13 85 16 49 7 138 50 152 74 10 16 10 16 11 0 0 -14 5 -14 39 5 22 12 73
45 113 73 139 97 210 123 363 134 123 8 167 5 275 -22z m-4023 -110 c-3 -8 -6
-5 -6 6 -1 11 2 17 5 13 3 -3 4 -12 1 -19z m103 -230 c0 -4 12 -5 26 -2 16 3
23 1 19 -6 -3 -5 0 -7 8 -4 8 3 20 -2 27 -11 11 -13 10 -14 -4 -9 -19 7 -66
-13 -79 -34 -10 -16 -37 2 -37 25 0 8 -12 34 -26 59 -15 25 -23 51 -20 61 5
13 14 7 46 -28 22 -24 40 -47 40 -51z m124 41 c-2 -4 -12 -5 -23 -2 -21 5 -37
-33 -17 -41 6 -2 7 -5 1 -5 -5 0 -17 3 -25 9 -12 7 -12 12 4 29 17 18 71 27
60 10z m5566 -63 c0 -8 -7 -16 -15 -20 -15 -5 -21 14 -8 27 11 12 23 8 23 -7z
m28 -103 c7 -7 20 -13 28 -13 8 0 13 -4 10 -9 -3 -5 7 -11 23 -14 20 -4 32
-15 39 -36 6 -16 30 -51 54 -77 39 -43 43 -51 43 -99 0 -56 -29 -111 -88 -168
-30 -29 -86 -61 -93 -54 -7 6 7 37 16 37 14 0 115 105 128 133 24 55 16 88
-35 139 -53 52 -184 158 -195 158 -5 0 -8 4 -8 9 0 13 63 8 78 -6z m-5671 -18
c-4 -8 -11 -15 -17 -15 -6 0 -6 7 2 20 14 22 24 19 15 -5z m-58 -107 c1 -10
-3 -18 -9 -18 -5 0 -11 8 -11 18 -1 16 -2 16 -6 0 -2 -10 -9 -18 -14 -18 -14
0 -7 31 11 52 14 17 15 17 22 1 3 -10 7 -26 7 -35z m-125 -354 c6 -15 4 -15
-11 -3 -10 7 -20 15 -22 16 -2 2 3 3 11 3 9 0 19 -7 22 -16z m20 -39 c6 -17 4
-18 -18 -9 -20 8 -21 24 -2 24 8 0 16 -7 20 -15z m5771 -74 c-3 -6 -11 -8 -17
-5 -6 4 -5 9 3 15 16 10 23 4 14 -10z m-35 0 c0 -5 3 -17 7 -27 5 -13 3 -15
-7 -9 -10 6 -12 4 -7 -8 4 -10 1 -17 -6 -17 -7 0 -20 -24 -29 -52 -10 -29 -15
-39 -12 -23 3 17 8 56 11 88 4 47 9 57 24 57 11 0 19 -4 19 -9z m55 -91 c3 -5
1 -10 -4 -10 -6 0 -11 5 -11 10 0 6 2 10 4 10 3 0 8 -4 11 -10z m270 -30 c-3
-5 -12 -10 -18 -10 -7 0 -6 4 3 10 19 12 23 12 15 0z m-428 -42 c-3 -8 -6 -5
-6 6 -1 11 2 17 5 13 3 -3 4 -12 1 -19z m-10 -50 c-3 -8 -6 -5 -6 6 -1 11 2
17 5 13 3 -3 4 -12 1 -19z m-1684 -53 c80 -32 132 -84 190 -190 53 -97 65
-144 68 -260 5 -208 -98 -382 -284 -482 -25 -14 -56 -17 -147 -17 -101 0 -119
3 -150 22 -19 12 -41 22 -48 22 -24 0 -172 124 -172 144 0 4 -12 25 -27 49
-43 67 -73 148 -73 200 0 26 3 47 8 47 4 0 8 17 8 38 6 163 119 319 294 403
110 53 237 62 333 24z m-1493 -85 c117 -37 182 -74 245 -139 92 -96 123 -147
140 -238 22 -116 9 -212 -40 -295 -64 -107 -108 -158 -169 -199 -67 -45 -97
-55 -122 -41 -14 8 -28 3 -61 -19 -24 -17 -48 -27 -54 -23 -6 3 -45 10 -87 15
-134 15 -251 89 -293 185 -10 24 -22 44 -26 44 -5 0 -19 23 -32 51 -18 41 -25
77 -31 183 -8 126 -7 133 16 182 13 28 24 54 24 57 0 24 96 148 136 177 69 50
73 52 113 62 20 5 50 13 66 18 40 12 96 5 175 -20z m-2238 -932 c10 -21 16
-38 13 -38 -7 0 -45 78 -44 92 0 9 2 8 6 -2 3 -8 14 -32 25 -52z m828 -214 c0
-14 -32 -12 -37 2 -2 5 6 10 17 10 11 0 20 -6 20 -12z m9 -101 c2 -2 -3 -3
-11 -3 -9 0 -19 7 -22 16 -6 15 -4 15 11 3 10 -7 20 -15 22 -16z m-279 -33 c0
-5 -4 -10 -10 -10 -5 0 -10 5 -10 10 0 6 5 10 10 10 6 0 10 -4 10 -10z m235
-120 c3 -6 -1 -7 -9 -4 -18 7 -21 14 -7 14 6 0 13 -4 16 -10z m-5 -132 c0 -19
-2 -20 -10 -8 -13 19 -13 30 0 30 6 0 10 -10 10 -22z m-185 -116 c-8 -8 -12 0
-19 38 l-7 35 16 -34 c8 -19 13 -36 10 -39z m219 27 c-3 -6 0 -15 7 -20 11 -7
10 -9 -3 -9 -18 0 -24 20 -11 33 10 11 15 8 7 -4z m16 -85 c0 -8 -4 -12 -10
-9 -5 3 -10 10 -10 16 0 5 5 9 10 9 6 0 10 -7 10 -16z m39 -38 c10 -12 8 -13
-8 -9 -12 3 -21 9 -21 14 0 14 16 11 29 -5z m51 -46 c0 -5 -4 -10 -10 -10 -5
0 -10 5 -10 10 0 6 5 10 10 10 6 0 10 -4 10 -10z m537 -226 c-3 -3 -12 -4 -19
-1 -8 3 -5 6 6 6 11 1 17 -2 13 -5z m1141 -272 c3 -10 -5 -12 -34 -6 -63 11
-75 24 -20 22 30 -2 51 -8 54 -16z m110 -6 c78 -10 111 -27 42 -21 -91 8 -140
17 -140 25 0 11 33 18 40 9 3 -3 29 -9 58 -13z m156 -12 c25 -9 10 -22 -20
-16 -19 3 -22 7 -12 13 16 11 13 10 32 3z m78 -16 c-8 -8 -17 -8 -34 0 -22 10
-21 11 12 11 26 1 31 -2 22 -11z m108 2 c11 -7 -1 -9 -40 -9 -46 1 -50 3 -25
9 43 11 48 11 65 0z m273 -77 c-7 -3 -13 -11 -13 -18 0 -10 -7 -12 -30 -5 -18
5 -30 5 -30 -1 0 -14 -20 -11 -36 5 -12 13 -8 16 33 21 27 3 55 7 63 9 19 3
29 -5 13 -11z m-1923 -63 c3 0 6 -19 8 -42 1 -23 8 -46 15 -50 7 -5 2 -8 -14
-8 -14 0 -51 15 -82 34 -32 19 -55 31 -52 25 4 -5 1 -9 -5 -9 -6 0 -15 11 -20
24 -5 13 -23 37 -41 54 l-33 31 110 -30 c60 -16 111 -29 114 -29z m1790 48 c0
-6 -9 -8 -20 -5 -11 3 -22 2 -24 -1 -4 -6 -152 -7 -166 -1 -12 5 81 16 143 17
40 0 67 -4 67 -10z m-2788 -69 c19 -3 24 -5 35 -12 10 -6 43 -126 43 -156 0
-17 -27 -13 -34 5 -3 8 -4 28 -1 42 4 22 4 23 -4 7 -8 -18 -11 -14 -30 28 -12
27 -29 51 -39 54 -13 3 -18 14 -18 37 0 33 0 33 20 15 11 -11 23 -20 28 -20z
m829 -11 c-11 -11 -13 -10 -7 0 4 7 2 21 -5 30 -12 15 -11 15 6 0 16 -15 17
-20 6 -30z m757 -346 c17 -22 15 -27 -14 -40 -18 -9 -31 -9 -46 -1 -15 8 -19
8 -14 0 5 -7 -4 -11 -23 -11 -17 0 -31 -4 -31 -10 0 -20 -45 -3 -48 18 -2 12
-9 22 -15 22 -7 0 1 9 17 19 17 11 33 18 38 15 4 -3 15 -1 23 3 23 13 99 3
113 -15z m-239 -64 c8 -22 5 -23 -43 -30 -91 -14 -129 -14 -133 0 -3 7 4 12
16 12 11 0 23 5 26 10 4 6 11 8 16 5 5 -4 16 1 25 9 8 9 31 16 50 16 27 0 37
-5 43 -22z m-1644 -30 c22 -6 35 -13 29 -15 -7 -2 -38 5 -70 17 -58 20 -37 19
41 -2z m1459 -3 c4 -11 -1 -15 -19 -15 -14 0 -25 4 -25 10 0 5 7 7 15 4 8 -4
15 -1 15 5 0 16 7 14 14 -4z m316 -31 c89 -115 119 -161 120 -179 0 -12 5 -26
11 -32 15 -15 -58 -50 -116 -57 -51 -6 -85 -16 -85 -26 0 -4 -10 -8 -22 -9
-49 -1 -64 -4 -78 -16 -18 -15 -100 -19 -100 -5 0 6 -6 10 -13 10 -6 0 -28 20
-47 45 -19 25 -45 48 -57 51 -13 3 -23 12 -23 19 0 8 -6 20 -14 28 -8 7 -23
29 -33 48 -10 19 -22 35 -28 36 -5 1 -11 7 -14 14 -2 6 1 9 6 6 5 -3 16 3 23
14 15 20 40 26 40 9 0 -5 6 -10 13 -10 8 0 33 -22 56 -50 23 -27 46 -50 51
-50 5 0 18 17 29 38 11 20 20 31 21 23 0 -8 7 -11 20 -8 11 3 20 1 20 -4 0
-16 25 -10 39 10 8 11 20 17 28 14 7 -3 13 -1 13 3 0 5 14 9 30 9 17 0 30 -3
30 -6 0 -3 7 -6 15 -6 20 0 27 24 9 31 -9 3 -12 10 -9 16 3 5 1 10 -4 10 -6 0
-11 12 -11 26 0 19 4 25 15 20 9 -3 15 0 15 9 0 25 13 16 50 -31z m-373 14
c-3 -8 -6 -5 -6 6 -1 11 2 17 5 13 3 -3 4 -12 1 -19z m2296 15 c-7 -2 -21 -2
-30 0 -10 3 -4 5 12 5 17 0 24 -2 18 -5z m-73 -13 c0 -5 -12 -10 -27 -9 l-28
1 25 8 c14 4 26 8 28 9 1 1 2 -3 2 -9z m-2240 -4 c0 -3 -4 -8 -10 -11 -5 -3
-10 -1 -10 4 0 6 5 11 10 11 6 0 10 -2 10 -4z m-190 -112 c0 -8 5 -14 10 -14
6 0 10 -6 10 -12 -1 -7 -12 1 -25 17 -28 33 -33 54 -10 35 8 -7 15 -19 15 -26z
m52 14 c-6 -6 -15 -8 -19 -4 -4 4 -1 11 7 16 19 12 27 3 12 -12z m656 -19 c48
-2 126 -79 104 -101 -19 -19 -58 6 -72 45 -7 18 -22 38 -34 43 -11 5 -21 16
-22 24 0 9 1 10 3 3 3 -7 12 -13 21 -14z m352 -46 c0 -7 -7 -13 -15 -13 -8 0
-15 6 -15 13 0 8 7 14 15 14 8 0 15 -6 15 -14z m-75 -3 c3 -5 -1 -10 -9 -10
-9 0 -16 5 -16 10 0 6 4 10 9 10 6 0 13 -4 16 -10z m30 0 c3 -5 1 -10 -4 -10
-6 0 -11 5 -11 10 0 6 2 10 4 10 3 0 8 -4 11 -10z m-925 -60 c25 -49 25 -60 1
-60 -17 0 -25 14 -36 58 -2 6 1 12 6 12 4 0 6 7 3 15 -12 31 6 13 26 -25z
m3410 -82 c7 -99 -3 -170 -20 -151 -11 11 -40 162 -40 207 0 29 5 38 23 45 12
5 24 7 26 5 2 -2 7 -50 11 -106z m-3360 42 c0 -5 -5 -10 -11 -10 -5 0 -7 5 -4
10 3 6 8 10 11 10 2 0 4 -4 4 -10z m3075 -135 c6 -44 13 -85 17 -90 9 -14 -5
-76 -17 -77 -11 -1 -57 161 -49 174 3 4 -2 18 -10 30 -19 26 -4 51 28 46 18
-3 22 -13 31 -83z m-1992 38 c-7 -2 -19 -2 -25 0 -7 3 -2 5 12 5 14 0 19 -2
13 -5z m1661 -65 c13 -48 19 -265 7 -272 -16 -10 -31 35 -42 129 -6 44 -14 97
-18 117 -9 43 -6 48 25 48 14 0 24 -8 28 -22z m-326 -165 c-2 -94 -7 -138 -15
-140 -14 -5 -21 27 -31 152 -9 113 -7 125 24 125 l25 0 -3 -137z m-891 115
c-2 -7 0 -23 4 -35 5 -14 5 -23 -1 -23 -6 0 -10 -37 -10 -86 0 -76 -2 -85 -17
-82 -24 4 -37 90 -28 175 6 59 8 63 32 63 15 0 23 -5 20 -12z m3263 -21 c0
-20 0 -20 -15 -1 -19 25 -19 35 0 28 8 -4 15 -16 15 -27z m-2937 -139 c2 -139
1 -146 -15 -130 -20 20 -38 120 -38 208 0 66 5 76 33 72 17 -3 18 -16 20 -150z
m255 27 c3 -121 -2 -165 -16 -165 -14 0 -32 121 -32 209 0 80 1 82 23 79 21
-3 22 -7 25 -123z m2655 90 c4 -8 2 -17 -3 -20 -6 -4 -10 -4 -10 -1 0 2 -3 11
-6 20 -3 9 -2 16 4 16 5 0 12 -7 15 -15z m127 -15 c8 -5 12 -12 9 -15 -8 -8
-39 5 -39 16 0 11 11 11 30 -1z m-10 -35 c7 -8 10 -18 7 -22 -8 -7 -35 14 -48
39 -9 17 -8 18 9 9 10 -5 25 -17 32 -26z m66 -43 c-9 -9 -37 8 -31 18 5 8 11
7 21 -1 8 -6 12 -14 10 -17z m39 -103 c4 -6 5 -13 2 -15 -6 -7 -47 27 -47 39
0 10 36 -9 45 -24z m-1704 -27 c-22 -75 -22 -227 -2 -361 12 -74 26 -140 32
-147 6 -7 9 -26 7 -41 -2 -18 2 -27 10 -25 7 1 12 -8 12 -21 0 -13 9 -50 21
-83 11 -32 27 -81 36 -109 9 -27 26 -81 39 -120 30 -93 52 -190 60 -267 3 -35
9 -79 14 -98 20 -76 10 -787 -10 -775 -12 7 -18 -79 -7 -86 6 -4 7 -62 4 -145
-4 -77 -7 -152 -7 -169 -1 -26 -3 -27 -10 -10 -8 18 -9 17 -9 -8 -1 -16 3 -26
9 -22 6 4 10 -18 10 -59 0 -36 -2 -66 -5 -66 -13 0 -127 84 -132 97 -5 12 -7
12 -14 1 -6 -9 -9 -9 -9 -1 0 27 -178 177 -224 189 -19 4 -24 10 -17 18 12 15
-18 45 -38 38 -8 -3 -11 0 -7 7 4 6 2 11 -4 11 -6 0 -8 5 -4 12 5 8 2 9 -10 5
-13 -5 -17 -3 -13 7 6 14 -34 49 -71 60 -12 4 -22 12 -22 17 0 14 -172 189
-200 204 -14 7 -31 11 -38 9 -7 -1 -8 0 -2 3 19 9 10 22 -54 88 -40 41 -66 61
-69 53 -3 -7 -6 -4 -6 7 -1 28 -70 95 -99 95 -18 0 -22 4 -17 19 6 20 -56 91
-80 91 -7 0 -16 11 -19 25 -4 14 -11 25 -17 25 -6 0 -8 -4 -4 -9 3 -5 0 -13
-6 -17 -9 -5 -10 0 -6 17 6 24 -25 69 -47 69 -6 0 -3 -7 7 -14 10 -8 15 -16
10 -19 -4 -2 -21 9 -36 25 -25 27 -26 29 -6 23 14 -5 20 -3 17 5 -2 6 -7 10
-11 8 -3 -2 -14 7 -22 20 -9 12 -21 19 -27 16 -8 -5 -9 -1 -5 10 5 12 2 16
-10 14 -12 -2 -18 4 -19 18 -1 23 -34 73 -47 74 -5 0 -5 -5 -1 -12 4 -7 3 -8
-4 -4 -6 4 -9 12 -7 19 6 15 -53 79 -66 72 -5 -3 -6 1 -3 9 7 19 -12 22 -20 4
-3 -7 -3 -3 0 10 4 16 1 22 -10 22 -10 0 -16 9 -16 21 0 12 -8 23 -20 26 -11
3 -20 14 -20 24 0 11 -6 19 -12 19 -13 0 -68 70 -68 87 -1 13 -37 53 -49 53
-6 0 -11 5 -11 10 0 6 -6 9 -12 8 -7 -2 -14 7 -16 20 -2 14 -8 20 -15 16 -7
-4 -9 -4 -5 1 4 4 2 15 -5 24 -10 14 -10 14 4 3 14 -10 18 -10 23 4 10 25 7
34 -9 34 -9 0 -15 10 -15 26 0 14 4 23 10 19 6 -3 10 -4 10 -1 0 2 3 12 7 22
5 14 2 16 -15 12 -15 -4 -22 -2 -22 8 0 8 6 11 15 8 8 -4 15 -1 15 4 0 6 -9
13 -19 17 -28 9 -45 105 -21 120 6 4 6 15 0 30 -5 14 -7 32 -4 40 5 11 -1 15
-20 15 -19 0 -26 5 -26 20 0 11 5 20 10 20 6 0 10 7 10 15 0 14 -12 20 -33 16
-4 -1 -3 7 3 18 11 21 4 51 -12 51 -6 0 -8 -10 -5 -22 l6 -23 -20 24 c-22 27
-26 63 -5 55 19 -7 31 28 13 38 -8 4 -18 19 -21 32 -4 18 -11 23 -25 19 -10
-3 -22 0 -25 6 -5 7 2 11 18 11 14 0 28 5 31 11 4 6 19 7 38 3 79 -17 492 -20
614 -3 43 6 114 14 158 19 158 18 231 29 285 45 30 8 80 20 110 25 58 10 303
93 380 129 65 30 81 28 71 -7z m-4801 14 c0 -3 -4 -8 -10 -11 -5 -3 -10 -1
-10 4 0 6 5 11 10 11 6 0 10 -2 10 -4z m6550 -6 c0 -5 -2 -10 -4 -10 -3 0 -8
5 -11 10 -3 6 -1 10 4 10 6 0 11 -4 11 -10z m116 -37 c-7 -7 -26 7 -26 19 0 6
6 6 15 -2 9 -7 13 -15 11 -17z m118 -151 c3 -5 -1 -9 -9 -9 -8 0 -15 4 -15 9
0 4 4 8 9 8 6 0 12 -4 15 -8z m-3644 -101 c0 -6 -4 -13 -10 -16 -5 -3 -10 1
-10 9 0 9 5 16 10 16 6 0 10 -4 10 -9z m3722 -13 c-7 -7 -12 -8 -12 -2 0 14
12 26 19 19 2 -3 -1 -11 -7 -17z m88 -22 c0 -3 -4 -8 -10 -11 -5 -3 -10 -1
-10 4 0 6 5 11 10 11 6 0 10 -2 10 -4z m27 -18 c-3 -8 -6 -5 -6 6 -1 11 2 17
5 13 3 -3 4 -12 1 -19z m-583 -21 c11 -8 16 -20 13 -28 -4 -10 -6 -9 -6 4 -1
9 -7 17 -15 17 -8 0 -18 5 -21 10 -9 14 8 12 29 -3z m613 -39 c16 -20 23 -48
13 -48 -5 0 -18 14 -30 30 -16 23 -18 30 -7 30 8 0 19 -6 24 -12z m-6707 -137
c0 -14 5 -18 20 -14 11 3 20 10 20 16 0 6 9 1 20 -11 12 -12 27 -22 35 -22 8
0 21 -10 29 -22 9 -12 16 -18 16 -13 0 5 5 4 11 -2 13 -13 49 -5 49 10 0 8 3
8 11 0 6 -6 28 -9 50 -6 44 6 61 -14 38 -45 -11 -14 -11 -15 1 -4 22 19 46 14
72 -15 33 -40 87 -83 103 -83 16 0 25 83 11 107 -6 11 -5 14 3 9 6 -4 11 0 11
10 0 10 3 14 7 11 3 -4 6 -21 5 -39 0 -31 1 -31 9 -9 5 13 7 26 4 29 -3 3 2
13 10 23 21 22 10 69 -16 69 -10 0 -19 5 -19 11 0 6 10 9 22 7 14 -2 25 -13
30 -33 16 -55 19 -83 8 -90 -15 -9 -12 -35 5 -35 10 0 15 -10 15 -30 0 -30
-22 -42 -36 -19 -11 18 -23 -4 -17 -32 4 -20 10 -25 23 -22 11 3 21 12 23 22
4 14 5 14 11 -1 6 -13 -4 -29 -37 -63 -25 -25 -48 -41 -51 -36 -4 5 -2 12 4
16 15 9 12 34 -6 52 -13 14 -39 19 -101 22 -7 1 -10 8 -6 18 5 12 2 15 -10 10
-8 -3 -18 -1 -21 6 -3 7 -3 -3 0 -22 7 -47 12 -53 41 -49 22 3 28 -3 40 -37
11 -30 11 -45 3 -58 -9 -15 -6 -24 15 -48 14 -17 25 -36 25 -42 0 -8 4 -7 9 2
6 9 5 23 -2 38 -12 28 -8 33 32 39 23 4 31 1 31 -10 0 -8 -4 -18 -10 -21 -5
-3 -10 -19 -10 -36 0 -16 -4 -37 -9 -47 -5 -9 -13 -35 -18 -57 -6 -32 -15 -43
-47 -60 -22 -11 -47 -32 -55 -47 -9 -14 -22 -26 -31 -26 -8 0 -28 -2 -45 -5
l-30 -6 35 29 c19 16 43 32 53 35 26 9 21 28 -5 21 -91 -24 -137 -29 -165 -17
-30 12 -54 48 -58 84 -1 9 -11 27 -23 40 -11 12 -21 27 -22 32 -1 22 -12 45
-21 45 -13 0 -11 -18 3 -22 6 -2 8 -9 4 -16 -5 -8 -12 -6 -26 6 -24 20 -27 57
-5 48 8 -3 15 -2 15 3 0 13 -33 39 -55 43 -11 2 -19 9 -18 15 1 6 -3 10 -10
10 -39 -1 -57 5 -57 19 0 8 5 12 10 9 6 -3 10 -1 10 5 0 6 -33 43 -72 83 -40
40 -73 79 -73 87 -1 8 -6 14 -13 13 -15 -4 -15 -3 -2 33 12 34 69 72 80 53 6
-8 9 -8 14 0 4 6 15 11 25 11 10 0 28 9 41 20 29 25 40 25 40 1z m6817 -5 l21
-23 -23 0 c-17 0 -22 5 -22 23 0 13 0 24 1 24 2 0 12 -11 23 -24z m-557 4 c0
-5 -2 -10 -4 -10 -3 0 -8 5 -11 10 -3 6 -1 10 4 10 6 0 11 -4 11 -10z m75 -80
c3 -5 1 -10 -4 -10 -6 0 -11 5 -11 10 0 6 2 10 4 10 3 0 8 -4 11 -10z m470 -1
c11 -16 1 -19 -13 -3 -7 8 -8 14 -3 14 5 0 13 -5 16 -11z m-435 -93 c-1 -20
-30 27 -30 48 0 18 3 16 15 -8 8 -15 15 -33 15 -40z m487 44 c3 -11 9 -20 14
-20 5 0 9 -11 9 -25 0 -25 -1 -25 -19 -8 -22 22 -37 73 -20 73 6 0 13 -9 16
-20z m-549 -15 c-3 -3 -9 2 -12 12 -6 14 -5 15 5 6 7 -7 10 -15 7 -18z m126
-20 c3 -9 0 -15 -9 -15 -8 0 -15 7 -15 15 0 8 4 15 9 15 5 0 11 -7 15 -15z
m41 -45 c-3 -5 -10 -10 -16 -10 -5 0 -9 5 -9 10 0 6 7 10 16 10 8 0 12 -4 9
-10z m441 -19 c-4 -5 0 -12 6 -14 8 -4 9 -6 2 -6 -6 -1 -17 6 -24 14 -10 12
-9 15 4 15 10 0 15 -4 12 -9z m-788 -20 c3 -8 -1 -12 -9 -9 -7 2 -15 10 -17
17 -3 8 1 12 9 9 7 -2 15 -10 17 -17z m-3188 -36 c13 -14 19 -25 13 -25 -5 0
-20 11 -33 25 -13 14 -19 25 -13 25 5 0 20 -11 33 -25z m4080 -6 c0 -5 -4 -9
-10 -9 -5 0 -10 7 -10 16 0 8 5 12 10 9 6 -3 10 -10 10 -16z m-500 -17 c0 -15
-2 -15 -10 -2 -13 20 -13 33 0 25 6 -3 10 -14 10 -23z m3 -39 c-7 -2 -19 -2
-25 0 -7 3 -2 5 12 5 14 0 19 -2 13 -5z m582 -3 c3 -5 1 -10 -4 -10 -6 0 -11
5 -11 10 0 6 2 10 4 10 3 0 8 -4 11 -10z m-165 -22 c0 -13 -23 -5 -28 10 -2 7
2 10 12 6 9 -3 16 -11 16 -16z m-6354 -63 c-3 -9 -11 -13 -16 -10 -8 5 -7 11
1 21 14 18 24 11 15 -11z m5601 -29 c3 -45 -11 -39 -21 10 -5 22 -3 31 6 31 8
0 14 -16 15 -41z m464 7 c13 -16 12 -17 -3 -4 -10 7 -18 15 -18 17 0 8 8 3 21
-13z m-6084 -8 c8 -22 -6 -33 -17 -15 -13 20 -12 30 0 30 6 0 13 -7 17 -15z
m-447 -39 c0 -3 -4 -8 -10 -11 -5 -3 -10 -1 -10 4 0 6 5 11 10 11 6 0 10 -2
10 -4z m6610 -101 c7 -9 10 -18 7 -22 -8 -7 -37 15 -37 28 0 14 16 11 30 -6z
m40 -166 c0 -4 -7 -6 -15 -3 -8 4 -15 10 -15 15 0 4 7 6 15 3 8 -4 15 -10 15
-15z m45 1 c3 -5 -1 -10 -9 -10 -9 0 -16 5 -16 10 0 6 4 10 9 10 6 0 13 -4 16
-10z m12 -96 c-3 -3 -12 -4 -19 -1 -8 3 -5 6 6 6 11 1 17 -2 13 -5z m-1807
-45 c0 -24 -4 -38 -10 -34 -5 3 -10 22 -10 41 0 19 5 34 10 34 6 0 10 -18 10
-41z m770 -283 c0 -2 -7 -7 -16 -10 -8 -3 -12 -2 -9 4 6 10 25 14 25 6z m2102
-133 c-13 -3 -26 -11 -29 -19 -3 -8 -12 -14 -19 -14 -12 0 -12 4 -4 20 8 14
20 20 43 19 24 -1 27 -3 9 -6z m-103 -97 c-24 -22 -40 -38 -35 -33 19 14 27 7
16 -13 -8 -15 -17 -19 -32 -14 -11 3 -18 2 -15 -3 3 -5 -10 -7 -29 -5 -21 3
-34 0 -34 -7 0 -6 5 -11 12 -11 6 0 3 -6 -7 -14 -13 -10 -25 -11 -37 -5 -22
12 -28 11 -28 -2 0 -5 4 -8 9 -4 5 3 12 1 16 -5 8 -12 -12 -50 -27 -50 -7 0
-7 4 1 14 9 10 8 16 -4 26 -19 16 -3 40 27 40 14 0 18 5 14 15 -3 8 -1 15 4
15 6 0 10 7 10 15 0 8 4 15 8 15 5 0 26 16 48 35 28 25 45 34 61 30 12 -3 25
-1 28 5 3 5 -1 10 -9 10 -25 0 -19 18 7 22 14 2 25 -3 32 -16 8 -15 1 -26 -36
-60z m21 -16 c0 -5 -5 -10 -11 -10 -5 0 -7 5 -4 10 3 6 8 10 11 10 2 0 4 -4 4
-10z m-3836 -41 c-9 -15 -20 -10 -20 10 0 15 3 17 13 9 7 -6 10 -14 7 -19z
m-174 -39 c0 -5 -7 -10 -15 -10 -8 0 -15 5 -15 10 0 6 7 10 15 10 8 0 15 -4
15 -10z m927 -42 c-3 -7 -5 -2 -5 12 0 14 2 19 5 13 2 -7 2 -19 0 -25z m3060
-10 c-3 -8 -6 -5 -6 6 -1 11 2 17 5 13 3 -3 4 -12 1 -19z m-232 -18 c-5 -21
-3 -30 6 -30 9 0 8 -5 -4 -17 -9 -9 -18 -15 -20 -12 -5 6 13 89 19 89 3 0 3
-13 -1 -30z m-45 -80 c0 -5 -4 -10 -10 -10 -5 0 -10 5 -10 10 0 6 5 10 10 10
6 0 10 -4 10 -10z m-3085 -199 c10 -18 -17 -23 -33 -7 -15 15 -15 16 5 16 12
0 24 -4 28 -9z m36 -38 c13 -16 12 -17 -3 -4 -17 13 -22 21 -14 21 2 0 10 -8
17 -17z m154 -144 c-10 -15 -25 -10 -19 6 4 8 10 12 15 9 5 -3 7 -10 4 -15z"/>
<path d="M7270 9571 c0 -10 30 -24 37 -17 3 2 -5 9 -16 16 -12 6 -21 7 -21 1z"/>
<path d="M7380 9450 c0 -5 5 -10 11 -10 5 0 7 5 4 10 -3 6 -8 10 -11 10 -2 0
-4 -4 -4 -10z"/>
<path d="M7555 9410 c3 -5 8 -10 11 -10 2 0 4 5 4 10 0 6 -5 10 -11 10 -5 0
-7 -4 -4 -10z"/>
<path d="M7470 9376 c0 -9 5 -16 10 -16 6 0 10 4 10 9 0 6 -4 13 -10 16 -5 3
-10 -1 -10 -9z"/>
<path d="M7604 9314 c-18 -14 -18 -15 6 -8 14 3 32 10 40 15 12 7 11 8 -6 9
-11 0 -29 -7 -40 -16z"/>
<path d="M5531 8354 c0 -11 3 -14 6 -6 3 7 2 16 -1 19 -3 4 -6 -2 -5 -13z"/>
<path d="M6740 9070 c0 -5 5 -10 10 -10 6 0 10 5 10 10 0 6 -4 10 -10 10 -5 0
-10 -4 -10 -10z"/>
<path d="M5450 8890 c0 -5 5 -10 11 -10 5 0 7 5 4 10 -3 6 -8 10 -11 10 -2 0
-4 -4 -4 -10z"/>
<path d="M8112 8240 c0 -14 2 -19 5 -12 2 6 2 18 0 25 -3 6 -5 1 -5 -13z"/>
<path d="M8152 8070 c0 -14 2 -19 5 -12 2 6 2 18 0 25 -3 6 -5 1 -5 -13z"/>
<path d="M4728 7603 c7 -3 16 -2 19 1 4 3 -2 6 -13 5 -11 0 -14 -3 -6 -6z"/>
<path d="M4125 7360 c4 -6 11 -8 16 -5 14 9 11 15 -7 15 -8 0 -12 -5 -9 -10z"/>
<path d="M4035 7040 c3 -5 14 -10 23 -10 15 0 15 2 2 10 -20 13 -33 13 -25 0z"/>
<path d="M3945 6650 c-3 -5 3 -10 15 -10 12 0 18 5 15 10 -3 6 -10 10 -15 10
-5 0 -12 -4 -15 -10z"/>
<path d="M6405 6551 c-83 -20 -154 -80 -185 -155 -11 -28 -26 -60 -32 -71 -15
-26 -12 -82 8 -158 21 -82 37 -110 94 -167 68 -68 182 -100 252 -70 13 5 41
14 63 20 29 7 46 20 63 46 31 47 72 186 72 240 0 62 -41 181 -81 236 -33 45
-45 54 -86 63 -10 2 -34 9 -53 14 -39 12 -70 13 -115 2z m104 -91 c44 -22 51
-35 51 -92 0 -57 -26 -95 -78 -115 -40 -15 -47 -15 -71 -2 -14 8 -28 25 -29
39 -2 13 -10 33 -18 44 -12 19 -10 28 14 76 25 50 42 64 85 69 4 1 25 -8 46
-19z"/>
<path d="M5055 6482 c-6 -5 -28 -14 -50 -20 -125 -35 -200 -246 -146 -408 44
-130 102 -185 221 -210 60 -13 151 -5 191 17 36 19 79 52 79 60 0 4 14 29 30
56 84 135 61 321 -52 414 -43 36 -128 85 -128 74 0 -3 -8 -2 -17 3 -27 14
-117 23 -128 14z m110 -108 c76 -44 83 -132 14 -183 -25 -18 -38 -22 -67 -16
-47 9 -58 18 -82 72 -18 40 -18 48 -5 73 15 29 70 80 86 80 6 0 30 -12 54 -26z"/>
<path d="M5020 3429 c0 -5 5 -7 10 -4 6 3 10 8 10 11 0 2 -4 4 -10 4 -5 0 -10
-5 -10 -11z"/>
<path d="M7105 3190 c3 -5 8 -10 11 -10 2 0 4 5 4 10 0 6 -5 10 -11 10 -5 0
-7 -4 -4 -10z"/>
<path d="M7861 1784 c0 -11 3 -14 6 -6 3 7 2 16 -1 19 -3 4 -6 -2 -5 -13z"/>
<path d="M7875 670 c3 -5 8 -10 11 -10 2 0 4 5 4 10 0 6 -5 10 -11 10 -5 0 -7
-4 -4 -10z"/>
<path d="M7871 574 c0 -11 3 -14 6 -6 3 7 2 16 -1 19 -3 4 -6 -2 -5 -13z"/>
<path d="M3413 2233 c-7 -3 -13 -8 -13 -13 0 -11 77 -60 95 -60 21 0 19 13 -5
28 -12 7 -18 17 -15 22 3 6 -3 10 -15 10 -12 0 -19 4 -16 8 5 9 -11 11 -31 5z"/>
<path d="M3505 2230 c-3 -5 -1 -10 4 -10 6 0 11 5 11 10 0 6 -2 10 -4 10 -3 0
-8 -4 -11 -10z"/>
<path d="M3530 2185 c0 -9 9 -15 21 -15 18 0 19 2 9 15 -7 8 -16 15 -21 15 -5
0 -9 -7 -9 -15z"/>
<path d="M3476 2124 c-4 -10 -1 -14 6 -12 15 5 23 28 10 28 -5 0 -13 -7 -16
-16z"/>
<path d="M3560 1964 c0 -6 7 -19 15 -30 8 -10 14 -14 14 -9 0 6 -6 19 -14 29
-8 11 -15 15 -15 10z"/>
<path d="M3570 1868 c0 -30 1 -31 16 -16 9 9 14 24 11 32 -11 27 -27 17 -27
-16z"/>
<path d="M3530 1835 c-8 -9 -8 -15 -2 -15 12 0 26 19 19 26 -2 2 -10 -2 -17
-11z"/>
<path d="M3366 1775 c4 -8 8 -15 10 -15 2 0 4 7 4 15 0 8 -4 15 -10 15 -5 0
-7 -7 -4 -15z"/>
<path d="M8677 7763 c3 -7 9 -10 14 -7 14 8 11 21 -5 21 -8 0 -12 -6 -9 -14z"/>
<path d="M8732 7050 c0 -14 2 -19 5 -12 2 6 2 18 0 25 -3 6 -5 1 -5 -13z"/>
<path d="M8423 6125 c0 -38 2 -53 4 -32 2 20 2 52 0 70 -2 17 -4 1 -4 -38z"/>
<path d="M8413 5990 c0 -25 2 -35 4 -22 2 12 2 32 0 45 -2 12 -4 2 -4 -23z"/>
<path d="M3850 5791 c0 -6 5 -13 10 -16 6 -3 10 1 10 9 0 9 -4 16 -10 16 -5 0
-10 -4 -10 -9z"/>
<path d="M3837 5596 c-4 -10 -1 -13 8 -9 8 3 12 9 9 14 -7 12 -11 11 -17 -5z"/>
<path d="M3451 5274 c0 -11 3 -14 6 -6 3 7 2 16 -1 19 -3 4 -6 -2 -5 -13z"/>
<path d="M6505 5184 c-210 -74 -298 -91 -630 -124 -60 -6 -146 -17 -190 -25
-44 -8 -136 -19 -205 -25 -126 -12 -140 -14 -140 -30 0 -15 66 -50 127 -68 83
-24 510 -23 628 2 213 45 322 88 425 165 62 47 124 142 93 141 -5 0 -53 -16
-108 -36z"/>
<path d="M3801 5174 c0 -11 3 -14 6 -6 3 7 2 16 -1 19 -3 4 -6 -2 -5 -13z"/>
<path d="M3774 5125 c-3 -13 -4 -30 -1 -37 3 -7 6 -3 6 10 1 12 6 22 11 22 6
0 10 7 10 15 0 24 -19 17 -26 -10z"/>
<path d="M7308 4443 c6 -2 18 -2 25 0 6 3 1 5 -13 5 -14 0 -19 -2 -12 -5z"/>
<path d="M5555 4360 c-3 -5 -1 -10 4 -10 6 0 11 5 11 10 0 6 -2 10 -4 10 -3 0
-8 -4 -11 -10z"/>
<path d="M6410 4170 c0 -5 4 -10 9 -10 6 0 13 5 16 10 3 6 -1 10 -9 10 -9 0
-16 -4 -16 -10z"/>
<path d="M5310 3890 c0 -5 5 -10 11 -10 5 0 7 5 4 10 -3 6 -8 10 -11 10 -2 0
-4 -4 -4 -10z"/>
<path d="M9260 2937 c8 -8 26 -18 40 -22 32 -9 25 -2 -20 20 -27 13 -32 14
-20 2z"/>
<path d="M9540 2694 c15 -17 41 -19 34 -1 -2 7 -14 13 -25 14 -17 2 -18 -1 -9
-13z"/>
<path d="M9620 2643 c1 -15 55 -87 70 -91 11 -4 11 0 -3 19 -10 13 -25 36 -35
51 -16 26 -32 37 -32 21z"/>
<path d="M9380 2542 c0 -14 39 -46 47 -38 4 3 -3 15 -15 26 -23 22 -32 25 -32
12z"/>
<path d="M9750 2500 c0 -5 7 -10 16 -10 8 0 12 5 9 10 -3 6 -10 10 -16 10 -5
0 -9 -4 -9 -10z"/>
<path d="M9455 2480 c3 -5 8 -10 11 -10 2 0 4 5 4 10 0 6 -5 10 -11 10 -5 0
-7 -4 -4 -10z"/>
<path d="M9425 2459 c9 -29 4 -25 42 -32 26 -5 31 -3 26 8 -3 8 -16 15 -29 15
-13 0 -23 5 -21 11 1 6 -4 14 -12 16 -10 4 -11 -1 -6 -18z"/>
<path d="M9568 2323 c6 -2 18 -2 25 0 6 3 1 5 -13 5 -14 0 -19 -2 -12 -5z"/>
<path d="M9650 2201 c0 -6 4 -13 10 -16 6 -3 7 1 4 9 -7 18 -14 21 -14 7z"/>
<path d="M10120 1883 c0 -4 5 -15 10 -23 8 -13 10 -13 10 2 0 9 -4 20 -10 23
-5 3 -10 3 -10 -2z"/>
<path d="M9950 1762 c6 -13 14 -21 18 -18 3 4 -2 14 -12 24 -18 16 -18 16 -6
-6z"/>
</g>
</svg>
