<?xml version="1.0" standalone="no"?>
<!DOCTYPE svg PUBLIC "-//W3C//DTD SVG 20010904//EN"
 "http://www.w3.org/TR/2001/REC-SVG-20010904/DTD/svg10.dtd">
<svg version="1.0" xmlns="http://www.w3.org/2000/svg"
 width="1533.000000pt" height="1533.000000pt" viewBox="0 0 1533.000000 1533.000000"
 preserveAspectRatio="xMidYMid meet">

<g transform="translate(0.000000,1533.000000) scale(0.100000,-0.100000)"
fill="#000000" stroke="none">
<path d="M7760 14156 c0 -21 -6 -25 -46 -31 -25 -3 -218 -6 -428 -5 -209 1
-524 1 -698 1 l-318 -1 0 -40 0 -40 -62 0 c-97 0 -108 -6 -108 -51 0 -37 -1
-38 -37 -41 -33 -3 -38 -7 -41 -30 -2 -19 -9 -28 -22 -28 -10 0 -20 -5 -22
-11 -3 -8 -42 -14 -106 -17 l-102 -5 0 -33 c0 -30 -3 -34 -34 -40 -19 -3 -39
-3 -45 1 -7 4 -11 -8 -11 -34 0 -38 -1 -39 -40 -46 -38 -6 -40 -8 -40 -44 0
-37 -1 -38 -47 -47 -42 -8 -48 -12 -51 -36 -3 -22 -9 -28 -27 -28 -13 0 -27
-4 -30 -10 -4 -6 -60 -10 -136 -10 l-129 0 0 -40 c0 -40 0 -40 -39 -40 -38 0
-38 0 -45 -46 -3 -26 -6 -64 -6 -85 0 -38 -1 -39 -34 -39 -34 0 -35 -1 -38
-42 -2 -36 -7 -44 -25 -46 -13 -2 -23 -8 -23 -13 0 -5 -7 -9 -15 -9 -9 0 -15
-9 -15 -25 0 -19 -5 -25 -22 -25 -55 0 -68 -10 -68 -51 l0 -39 -77 -2 c-43 -1
-105 -1 -138 0 -109 5 -840 1 -857 -4 -13 -4 -18 -16 -18 -39 0 -33 -2 -34
-42 -37 -43 -3 -43 -3 -46 -45 -3 -41 -5 -43 -36 -43 -30 0 -33 -3 -42 -42 -8
-37 -13 -43 -36 -46 -16 -2 -28 -9 -28 -18 0 -8 -4 -14 -10 -14 -5 0 -10 -11
-10 -25 0 -22 -4 -25 -40 -25 -39 0 -40 -1 -40 -34 0 -33 -2 -35 -45 -42 -44
-6 -45 -7 -45 -44 l0 -38 -86 -7 c-48 -4 -178 -4 -290 0 l-204 7 0 -45 0 -44
-80 -7 -80 -7 0 -35 0 -34 -50 0 -50 0 0 -45 c0 -45 0 -45 -35 -45 -34 0 -35
-1 -35 -36 0 -36 0 -37 35 -31 19 3 35 2 35 -4 0 -5 -18 -9 -40 -9 -40 0 -40
0 -40 -39 0 -39 -1 -40 -37 -43 -38 -3 -38 -3 -41 -51 l-3 -49 40 7 41 7 0
-41 0 -41 -40 0 c-38 0 -40 -1 -40 -32 0 -57 -10 -78 -36 -78 -19 0 -24 -5
-24 -24 0 -13 -7 -26 -15 -30 -10 -3 -15 -19 -15 -46 0 -37 -2 -40 -27 -40
-40 0 -51 -11 -55 -50 -3 -33 -6 -35 -40 -38 l-38 -3 0 -155 0 -154 25 0 c20
0 25 -5 25 -25 0 -16 6 -25 15 -25 12 0 15 -20 16 -117 1 -140 7 -167 37 -171
14 -2 22 -10 22 -23 0 -10 5 -19 10 -19 6 0 10 -9 10 -20 0 -11 -4 -20 -10
-20 -5 0 -10 -22 -10 -50 0 -47 -2 -50 -25 -50 -20 0 -25 -5 -25 -25 0 -14 -6
-28 -14 -31 -7 -3 -16 -22 -20 -43 -4 -26 -12 -40 -25 -44 -16 -4 -20 -17 -25
-93 -7 -116 -7 -1472 0 -1811 6 -253 7 -263 26 -263 11 0 22 -9 25 -20 3 -11
9 -20 14 -20 5 0 9 -14 9 -30 0 -30 -1 -31 -35 -24 l-35 6 0 -57 c0 -53 1 -56
22 -53 15 2 24 11 26 26 6 42 22 22 22 -28 l0 -50 -35 0 c-24 0 -35 -5 -35
-15 0 -10 10 -15 33 -15 31 0 34 -3 43 -42 8 -35 14 -43 40 -50 26 -7 32 -14
37 -43 3 -19 13 -42 21 -51 9 -8 16 -26 16 -39 0 -17 6 -25 23 -27 20 -3 22
-9 25 -76 3 -67 4 -73 22 -67 14 4 20 2 20 -9 0 -8 10 -16 23 -18 l22 -3 6
-275 c4 -151 7 -276 8 -277 0 -2 10 -3 20 -3 17 0 20 -11 26 -87 4 -49 13 -91
19 -95 6 -4 11 -15 11 -25 0 -10 4 -48 9 -85 7 -56 12 -68 26 -68 34 0 50 -12
50 -36 0 -15 6 -24 15 -24 8 0 15 -4 15 -9 0 -5 11 -12 25 -15 14 -4 25 -11
25 -16 0 -6 7 -10 15 -10 9 0 15 -9 15 -24 0 -19 6 -25 27 -28 20 -2 29 -9 31
-25 3 -17 10 -23 28 -23 17 0 24 -5 24 -20 0 -11 7 -20 15 -20 8 0 15 -8 15
-17 0 -28 23 -83 36 -83 16 0 24 -48 24 -146 0 -45 5 -86 10 -89 6 -3 10 -32
10 -63 0 -82 10 -132 26 -132 8 0 14 -11 14 -25 0 -18 5 -25 20 -25 17 0 20
-7 20 -46 0 -37 4 -47 19 -51 11 -3 21 -15 23 -27 2 -15 11 -22 31 -24 16 -2
27 -9 27 -19 0 -10 6 -13 16 -9 9 3 18 6 20 6 2 0 4 160 4 355 l0 355 25 0
c16 0 25 6 25 15 0 9 9 15 25 15 20 0 25 5 25 25 0 23 3 25 50 25 43 0 50 -3
50 -20 0 -14 7 -20 21 -20 12 0 23 8 26 20 4 15 14 20 37 20 17 0 48 3 69 6
31 6 37 11 37 30 0 22 4 24 50 24 36 0 50 4 50 14 0 14 29 26 68 26 15 0 22 6
22 19 0 15 -10 20 -45 25 -36 6 -45 11 -45 27 0 11 7 19 16 19 9 0 21 14 27
30 11 29 14 30 74 30 56 0 63 2 63 20 0 13 -7 20 -20 20 -13 0 -20 7 -20 20 0
13 7 20 20 20 11 0 20 -7 20 -15 0 -9 9 -15 24 -15 14 0 28 -4 31 -10 3 -5 17
-10 31 -10 15 0 24 -6 24 -15 0 -11 11 -15 39 -15 l39 0 7 -50 7 -50 43 0 43
0 7 -50 7 -50 44 0 c37 0 44 -3 44 -20 0 -16 9 -21 50 -26 40 -5 50 -10 50
-25 0 -14 7 -19 25 -19 18 0 25 -5 25 -19 0 -10 9 -21 20 -24 12 -3 20 -14 20
-25 0 -17 9 -21 50 -27 44 -6 50 -10 50 -31 0 -19 5 -24 25 -24 18 0 25 -5 25
-19 0 -16 9 -21 45 -27 l45 -6 0 -49 c0 -46 2 -49 25 -49 15 0 25 -6 25 -14 0
-9 17 -16 50 -21 40 -6 50 -11 50 -26 0 -12 7 -19 19 -19 15 0 20 -10 25 -49
l7 -50 44 -7 c35 -5 45 -10 45 -25 0 -13 7 -19 23 -19 42 0 67 -12 67 -31 0
-14 7 -19 25 -19 18 0 25 -5 25 -19 0 -15 10 -20 50 -25 41 -5 50 -10 50 -26
0 -17 7 -20 45 -20 l45 0 0 -37 c0 -71 11 -113 30 -113 14 0 19 -13 24 -70 7
-66 9 -70 32 -70 19 0 24 -5 24 -25 0 -15 6 -25 14 -25 9 0 16 -17 21 -50 6
-44 10 -50 31 -50 19 0 24 -5 24 -25 0 -18 5 -25 19 -25 22 0 31 -26 31 -92 0
-44 2 -48 25 -48 20 0 25 -5 25 -25 0 -18 5 -25 20 -25 15 0 20 -7 20 -25 0
-23 3 -25 50 -25 l50 0 0 -45 c0 -41 2 -45 25 -45 18 0 25 -5 25 -19 0 -15 10
-20 45 -25 35 -6 45 -11 45 -26 0 -14 11 -20 50 -25 39 -5 50 -11 50 -25 0
-13 11 -19 45 -24 35 -6 45 -11 45 -26 0 -14 11 -20 50 -25 39 -5 50 -11 50
-25 0 -15 13 -19 95 -25 84 -6 95 -9 95 -26 0 -14 7 -19 25 -19 18 0 25 5 25
19 0 16 11 19 95 26 92 7 95 8 95 31 0 24 1 24 94 24 86 0 95 2 101 20 3 11
15 20 26 20 14 0 19 7 19 25 0 24 2 25 75 25 72 0 75 1 75 24 0 20 6 25 45 30
36 6 45 11 45 27 0 14 7 19 25 19 18 0 25 5 25 20 0 15 7 20 25 20 20 0 25 5
25 25 0 20 5 25 25 25 24 0 25 2 25 75 0 73 1 75 25 75 18 0 25 5 25 19 0 13
8 21 23 23 14 2 23 11 25 25 2 14 11 23 25 25 14 2 23 11 25 26 2 14 10 22 23
22 14 0 19 7 19 30 0 23 5 30 19 30 15 0 19 11 24 68 4 37 7 109 7 160 0 84 2
92 19 92 14 0 21 8 23 28 2 19 9 28 25 30 14 2 23 11 25 25 3 20 10 22 76 25
64 3 72 5 72 22 0 18 7 20 70 20 63 0 70 -2 70 -20 0 -14 7 -20 24 -20 21 0
25 -6 31 -50 4 -31 12 -50 20 -50 8 0 16 -19 20 -50 5 -39 11 -50 25 -50 14 0
19 -12 24 -70 7 -66 9 -70 32 -70 22 0 24 -4 24 -45 0 -38 3 -45 19 -45 15 0
20 -10 26 -50 4 -32 12 -50 21 -50 9 0 16 -18 20 -50 6 -44 9 -50 30 -50 19 0
24 -5 24 -25 0 -18 5 -25 19 -25 13 0 21 -8 23 -22 2 -14 12 -24 28 -28 16 -4
26 -14 28 -28 2 -14 10 -22 23 -22 12 0 19 -7 19 -20 0 -15 7 -20 25 -20 20 0
25 -5 25 -25 0 -20 5 -25 25 -25 18 0 25 -5 25 -19 0 -15 10 -20 44 -25 36 -6
45 -11 48 -29 2 -14 10 -22 23 -23 11 -1 32 -2 48 -3 19 -1 27 -6 27 -20 0
-15 10 -20 50 -26 39 -5 50 -11 50 -25 0 -12 8 -20 23 -22 14 -2 23 -11 25
-26 l3 -22 235 0 234 0 0 24 c0 22 5 23 71 29 39 3 73 8 75 10 2 2 5 20 6 40
l3 37 55 0 c30 0 72 3 93 6 31 6 37 11 37 30 0 19 5 24 25 24 20 0 25 5 25 25
0 20 5 25 25 25 20 0 25 5 25 25 0 20 5 25 25 25 15 0 25 6 25 14 0 10 16 17
45 22 l45 6 0 68 c0 64 2 69 23 72 14 2 23 11 25 26 3 16 10 22 28 22 19 0 24
5 24 25 0 20 5 25 25 25 23 0 25 3 25 50 0 46 2 50 23 50 16 0 24 6 24 18 -1
58 4 72 22 72 22 0 31 40 31 139 0 58 2 63 20 58 16 -4 20 0 20 19 0 17 6 24
20 24 15 0 20 7 20 25 0 23 3 25 50 25 47 0 50 2 50 25 0 20 5 25 25 25 20 0
25 5 25 25 0 21 5 25 30 25 23 0 30 4 30 20 0 17 7 20 40 20 36 0 40 3 40 25
0 20 5 25 25 25 20 0 25 5 25 25 0 20 5 25 25 25 20 0 25 5 25 24 0 21 6 25
50 31 33 5 50 12 50 21 0 8 10 14 25 14 20 0 25 5 25 26 0 17 6 28 20 31 11 3
20 14 20 24 0 14 7 19 25 19 20 0 25 5 25 24 0 21 6 25 50 31 l50 7 0 38 0 38
50 7 c40 6 50 11 50 26 0 12 7 19 20 19 15 0 20 7 20 25 0 20 5 25 25 25 20 0
25 5 25 25 0 20 5 25 25 25 18 0 25 5 25 20 0 16 9 21 50 26 39 5 50 11 50 24
0 13 11 20 39 25 37 6 39 9 46 51 5 38 9 44 31 44 19 0 24 5 24 25 0 23 4 25
45 25 41 0 45 2 45 25 0 21 5 25 30 25 25 0 30 4 30 25 0 20 5 25 25 25 19 0
25 5 25 23 0 20 4 22 40 19 37 -4 40 -2 40 22 0 22 4 26 30 26 25 0 30 4 30
25 0 24 3 25 54 25 67 0 86 7 86 31 0 16 7 19 44 19 42 0 44 1 50 38 3 20 6
54 6 75 0 30 4 37 20 37 17 0 20 7 20 45 0 39 -3 45 -21 45 -12 0 -23 8 -26
20 -7 26 -39 26 -46 0 -3 -12 -14 -20 -26 -20 -14 0 -21 -6 -21 -20 0 -16 -9
-21 -50 -26 l-49 -6 -3 -47 -3 -46 -42 -3 c-35 -3 -43 -7 -43 -23 0 -13 -7
-19 -24 -19 -18 0 -25 -6 -28 -22 -2 -15 -11 -24 -25 -26 -17 -3 -23 -10 -23
-28 0 -22 -4 -24 -50 -24 -47 0 -50 -2 -50 -25 0 -20 -5 -25 -25 -25 -18 0
-25 -5 -25 -19 0 -14 -10 -20 -37 -25 -39 -6 -63 -36 -63 -78 0 -14 -8 -18
-34 -18 -62 0 -96 -11 -96 -31 0 -14 -7 -19 -25 -19 -18 0 -25 -5 -25 -20 0
-15 -7 -20 -25 -20 -20 0 -25 -5 -25 -26 0 -17 -6 -28 -20 -31 -11 -3 -20 -14
-20 -24 0 -14 -7 -19 -25 -19 -20 0 -25 -5 -25 -25 0 -23 -3 -25 -50 -25 -47
0 -50 -2 -50 -25 0 -20 -5 -25 -25 -25 -20 0 -25 -5 -25 -25 0 -20 -5 -25 -25
-25 -19 0 -25 -5 -25 -21 0 -12 -8 -23 -19 -26 -11 -3 -21 -13 -24 -23 -3 -13
-18 -20 -51 -25 -29 -5 -46 -12 -46 -21 0 -8 -10 -14 -25 -14 -20 0 -25 -5
-25 -24 0 -21 -6 -25 -50 -31 -44 -6 -50 -10 -50 -31 0 -17 -6 -24 -19 -24
-17 0 -20 -8 -23 -47 -2 -31 -7 -48 -15 -47 -7 1 -83 2 -168 3 -146 1 -155 2
-155 20 0 13 -8 21 -22 23 -20 3 -23 10 -26 51 -3 43 -5 47 -28 47 l-26 0 2
93 c3 145 3 147 -20 147 -15 0 -20 7 -20 25 0 20 -5 25 -24 25 -20 0 -25 6
-30 45 -6 35 -11 45 -26 45 -13 0 -20 8 -22 28 -2 19 -9 28 -25 30 -14 2 -22
10 -21 20 1 9 0 29 0 45 -2 25 -5 27 -47 27 -38 0 -45 3 -45 20 0 19 7 20 145
20 138 0 145 -1 145 -20 0 -13 7 -20 20 -20 14 0 20 7 20 21 0 12 8 23 20 26
24 6 29 53 6 53 -10 0 -17 16 -22 45 -5 35 -10 45 -25 45 -15 0 -19 7 -19 39
0 21 -3 52 -6 69 -6 28 -11 32 -49 38 -40 6 -43 8 -49 44 -6 37 -8 39 -51 46
l-45 6 0 49 c0 46 -2 49 -25 49 -20 0 -25 5 -25 25 0 20 -5 25 -25 25 -20 0
-25 5 -25 25 0 23 -3 24 -67 27 l-68 3 -3 38 -3 37 -70 0 c-52 0 -69 -3 -69
-14 0 -18 -53 -26 -182 -26 l-108 0 0 -25 0 -25 -195 0 c-188 0 -195 -1 -195
-20 0 -19 -7 -20 -109 -20 -134 0 -171 -6 -171 -30 0 -14 -11 -20 -50 -25 -39
-5 -50 -11 -50 -25 0 -12 -8 -20 -22 -22 -22 -3 -23 -8 -26 -95 -3 -86 -4 -92
-25 -95 -14 -2 -22 -10 -23 -23 -1 -11 -2 -41 -3 -67 -1 -41 -4 -48 -21 -48
-17 0 -20 -7 -20 -49 0 -44 3 -50 23 -53 14 -2 23 -11 25 -25 2 -15 10 -23 22
-23 28 0 33 -15 25 -86 -6 -54 -10 -64 -26 -64 -14 0 -19 -7 -19 -25 0 -20 -5
-25 -24 -25 -18 0 -25 -6 -28 -22 -2 -15 -11 -24 -24 -26 -12 -2 -24 -12 -27
-23 -3 -11 -14 -19 -26 -19 -16 0 -21 -6 -21 -25 0 -20 -5 -25 -25 -25 -23 0
-25 -4 -27 -52 0 -29 -1 -61 0 -70 1 -13 -6 -18 -23 -18 -23 0 -25 -3 -25 -50
0 -43 -3 -50 -20 -50 -17 0 -20 -7 -20 -50 l0 -50 -107 0 c-60 0 -179 3 -265
7 -145 6 -158 8 -158 25 0 11 -7 18 -19 18 -21 0 -31 34 -31 106 0 40 -2 44
-25 44 -20 0 -25 5 -25 25 0 20 -5 25 -25 25 -22 0 -25 3 -19 25 5 22 3 25
-20 25 -24 0 -26 4 -26 40 0 35 -3 40 -24 40 -21 0 -24 6 -30 49 -5 41 -10 50
-29 53 -14 2 -23 11 -25 25 -2 16 -12 23 -41 28 -36 6 -39 9 -45 46 -5 30 -11
39 -26 39 -18 0 -20 7 -20 55 0 47 3 55 19 55 15 0 20 10 26 50 6 40 11 50 26
50 10 0 19 7 19 15 0 8 -8 15 -19 15 -14 0 -20 10 -25 46 -3 26 -6 62 -6 80 0
27 -4 34 -19 34 -19 0 -31 39 -31 101 0 18 -6 28 -20 32 -16 4 -20 14 -20 50
l0 45 -50 7 c-40 6 -50 11 -50 26 0 17 -9 19 -97 20 -54 1 -119 1 -145 0 -45
-1 -48 1 -48 24 l0 25 -120 0 -120 0 0 25 c0 24 -2 25 -70 25 -62 0 -70 2 -70
19 0 23 -40 31 -157 31 -76 0 -83 2 -83 20 0 19 -7 20 -120 20 -113 0 -120 -1
-120 -20 0 -15 -7 -20 -25 -20 -20 0 -25 -5 -25 -25 0 -20 -5 -25 -25 -25 -20
0 -25 -5 -25 -26 0 -23 -3 -25 -25 -20 -22 6 -25 3 -25 -19 0 -18 -5 -25 -20
-25 -15 0 -20 -7 -20 -24 0 -18 -6 -25 -22 -28 -15 -2 -24 -11 -26 -25 -2 -14
-11 -23 -25 -25 -16 -2 -23 -11 -25 -30 -3 -22 -9 -28 -26 -28 -15 0 -26 -7
-29 -20 -4 -16 -14 -20 -51 -20 l-46 0 0 -75 c0 -73 -1 -75 -25 -75 -18 0 -25
-5 -25 -20 0 -11 -7 -20 -15 -20 -9 0 -15 -9 -15 -25 0 -20 -5 -25 -25 -25
-20 0 -25 -5 -25 -25 0 -18 5 -25 20 -25 15 0 20 -7 20 -25 l0 -25 134 0 c161
0 196 6 196 31 0 16 8 19 51 19 42 0 52 3 56 20 5 17 14 20 69 20 57 0 64 -2
64 -20 0 -13 -7 -20 -20 -20 -16 0 -21 -9 -26 -50 -4 -31 -12 -50 -20 -50 -7
0 -15 -9 -19 -19 -4 -14 -19 -22 -51 -27 -38 -5 -44 -10 -44 -30 0 -19 -5 -24
-25 -24 -22 0 -25 -5 -25 -32 0 -68 -12 -108 -31 -108 -11 0 -19 -9 -21 -22
-2 -17 -11 -24 -30 -26 -16 -2 -28 -9 -28 -18 0 -8 -8 -14 -19 -14 -15 0 -20
-10 -26 -55 -4 -38 -11 -55 -21 -55 -8 0 -14 -10 -14 -25 0 -20 -5 -25 -25
-25 -25 0 -25 0 -25 -94 l0 -94 -42 -3 c-24 -2 -78 -3 -120 -1 -75 3 -78 5
-78 28 0 22 -4 24 -50 24 -47 0 -50 2 -50 25 0 20 -5 25 -25 25 -18 0 -25 5
-25 20 0 15 -7 20 -26 20 -23 0 -25 3 -19 30 l7 30 -51 0 c-44 0 -51 3 -51 20
0 15 -7 20 -24 20 -18 0 -25 6 -28 23 -2 16 -9 21 -25 19 -20 -3 -23 1 -23 27
0 24 -4 31 -20 31 -15 0 -20 7 -20 25 0 23 -3 25 -50 25 -47 0 -50 2 -50 25 0
20 -5 25 -25 25 -22 0 -25 4 -25 40 0 29 -5 42 -20 50 -11 6 -20 17 -20 25 0
9 -10 15 -25 15 -20 0 -25 5 -25 25 0 22 -4 25 -37 25 -21 0 -55 3 -75 6 -37
6 -38 8 -38 50 0 37 -3 43 -22 46 -15 2 -24 11 -26 26 -3 16 -10 22 -28 22
-19 0 -24 5 -24 25 0 23 -4 25 -44 25 l-45 0 -7 45 c-5 35 -10 45 -25 45 -14
0 -19 7 -19 25 0 23 -3 25 -50 25 -47 0 -50 2 -50 25 0 18 -5 25 -19 25 -13 0
-21 8 -23 23 -2 15 -11 23 -28 25 -23 3 -25 6 -22 47 3 36 8 45 23 45 14 0 19
7 19 25 0 20 5 25 25 25 20 0 25 5 25 25 0 23 -4 25 -45 25 -41 0 -45 2 -45
25 0 23 4 25 45 25 41 0 45 2 45 25 0 23 -4 25 -45 25 l-45 0 0 70 0 70 70 0
c39 0 70 4 70 9 0 23 -14 41 -30 41 -12 0 -20 9 -22 23 -2 18 -10 23 -45 25
l-43 3 0 190 c0 182 1 189 20 189 15 0 20 7 20 25 0 18 -5 25 -20 25 -17 0
-20 7 -20 45 l0 45 95 0 c95 0 95 0 95 25 0 20 5 25 25 25 20 0 25 5 25 25 0
18 5 25 20 25 15 0 20 -7 20 -25 0 -20 5 -25 25 -25 20 0 25 5 25 25 0 20 5
25 25 25 20 0 25 5 25 25 0 20 5 25 25 25 18 0 25 5 25 19 0 13 8 21 23 23 14
2 23 11 25 26 2 14 10 22 22 22 13 0 20 8 22 28 2 19 9 28 25 30 14 2 23 11
25 25 2 14 11 23 24 25 12 2 24 12 27 23 3 11 14 19 26 19 16 0 21 6 21 25 0
23 4 25 45 25 38 0 45 3 45 19 0 15 10 20 50 26 44 6 50 10 50 31 0 22 4 24
50 24 36 0 50 4 50 14 0 9 17 16 45 20 36 6 45 11 45 27 0 16 7 19 50 19 47 0
50 -1 50 -26 l0 -26 95 7 95 7 0 -26 c0 -21 5 -26 25 -26 20 0 25 -5 25 -26
l0 -26 93 2 c191 4 197 3 197 -25 0 -24 2 -25 70 -25 63 0 70 -2 70 -20 0 -16
7 -20 34 -20 44 0 66 -9 66 -25 0 -9 18 -16 45 -21 34 -5 45 -11 45 -24 0 -19
41 -30 113 -30 31 0 37 -3 37 -21 0 -12 8 -23 20 -26 11 -3 20 -14 20 -24 0
-14 7 -19 25 -19 20 0 25 5 25 25 0 20 5 25 25 25 20 0 25 -5 25 -25 l0 -25
153 -2 c83 -1 169 -2 190 -3 32 0 37 -3 37 -23 l0 -23 273 1 c149 1 280 -1
290 -5 9 -4 17 -13 17 -19 0 -13 253 -26 487 -26 93 0 93 0 93 25 0 25 1 25
89 25 116 0 151 7 151 31 0 16 8 19 58 19 79 0 132 10 132 25 0 7 11 16 25 19
16 4 25 13 25 26 0 16 7 20 33 20 68 0 107 12 107 31 0 14 7 19 25 19 21 0 25
5 25 30 0 25 4 30 25 30 14 0 25 6 25 14 0 14 49 26 108 26 25 0 32 4 32 19 0
17 11 20 100 26 86 6 100 10 100 25 0 23 37 30 151 30 82 0 89 2 89 20 0 18 7
20 59 20 86 0 121 9 121 31 0 18 12 19 198 22 246 3 457 -1 500 -8 19 -4 32
-12 32 -20 0 -9 10 -15 25 -15 23 0 25 -3 25 -50 l0 -50 45 0 c41 0 45 -2 45
-25 0 -20 5 -25 25 -25 20 0 25 -5 25 -25 0 -20 5 -25 25 -25 23 0 25 -4 25
-45 0 -38 3 -45 20 -45 15 0 20 -7 20 -25 0 -20 5 -25 25 -25 20 0 25 -5 25
-25 0 -20 5 -25 25 -25 24 0 25 -2 25 -68 0 -38 3 -103 6 -145 6 -66 10 -77
25 -77 14 0 19 -8 20 -32 1 -18 3 -47 5 -65 2 -18 -1 -35 -6 -38 -6 -3 -10
-49 -10 -101 0 -72 -3 -94 -14 -94 -19 0 -26 -86 -26 -326 l0 -204 25 0 c23 0
25 -3 25 -50 l0 -50 49 0 c46 0 48 -1 43 -25 -4 -22 -1 -25 22 -25 21 0 26 -5
26 -25 0 -23 3 -25 50 -25 47 0 50 -2 50 -25 0 -23 4 -25 45 -25 32 0 45 -4
45 -14 0 -9 17 -16 50 -21 40 -6 50 -11 50 -26 0 -18 9 -19 148 -19 81 0 157
-3 170 -6 19 -5 22 -2 22 20 0 19 5 26 20 26 13 0 20 7 20 19 0 16 10 21 55
26 47 6 55 10 50 25 -5 15 2 19 44 25 49 7 49 7 56 51 l6 44 65 0 64 0 0 50
c0 47 2 50 25 50 23 0 25 4 25 45 l0 45 50 0 c47 0 50 2 50 25 0 20 5 25 25
25 23 0 25 3 25 50 0 43 3 50 20 50 13 0 20 7 20 20 0 15 7 20 25 20 21 0 25
5 25 30 0 25 4 30 25 30 20 0 25 5 25 25 0 18 5 25 20 25 16 0 21 9 26 50 6
44 9 50 30 50 15 0 24 6 24 15 0 8 8 15 19 15 20 0 31 -34 31 -95 0 -24 5 -34
20 -38 16 -4 20 -14 20 -51 0 -42 2 -46 25 -46 20 0 25 -5 25 -25 0 -20 5 -25
25 -25 22 0 25 -4 25 -39 0 -67 11 -101 31 -101 14 0 19 -7 19 -30 0 -23 4
-30 20 -30 19 0 20 -7 20 -133 0 -74 3 -202 7 -285 5 -134 8 -152 23 -152 20
0 30 -43 30 -137 0 -49 3 -63 15 -63 8 0 15 -8 15 -19 0 -15 10 -20 55 -26 45
-5 55 -10 55 -25 0 -16 10 -21 49 -26 36 -5 48 -10 44 -20 -4 -11 9 -14 61
-14 59 0 66 2 66 20 0 11 5 20 10 20 6 0 10 6 10 14 0 18 37 23 195 31 165 8
172 10 179 46 4 21 11 29 26 29 11 0 20 4 20 9 0 5 12 11 28 13 19 2 27 9 28
23 1 11 2 32 3 47 1 19 7 27 24 30 14 2 23 11 25 24 2 12 12 24 22 27 13 3 20
16 22 43 2 32 7 40 26 42 20 3 22 9 22 60 0 31 3 87 7 125 5 56 9 67 24 67 16
0 19 10 21 73 3 66 5 72 26 75 21 3 22 8 22 93 0 88 0 89 -25 89 -23 0 -25 4
-25 44 l0 44 50 7 c39 5 50 11 50 25 0 13 10 20 39 25 27 4 42 13 49 31 7 14
20 24 32 24 15 0 20 7 20 25 0 20 5 25 25 25 15 0 25 5 24 13 -1 6 -1 27 0 45
1 25 5 32 20 32 27 0 36 63 28 203 -6 105 -22 177 -39 177 -4 0 -8 20 -8 44 0
35 4 46 19 51 13 4 21 19 26 50 5 34 11 45 24 45 24 0 28 59 37 465 4 171 10
312 15 315 4 3 10 22 14 42 6 30 4 39 -9 44 -12 4 -16 19 -16 55 0 48 -1 49
-30 49 -25 0 -30 4 -30 25 0 18 5 25 20 25 17 0 20 7 20 45 0 38 -3 45 -19 45
-16 0 -21 -9 -27 -45 -3 -25 -8 -44 -10 -42 -8 8 -12 227 -4 232 4 3 11 25 14
50 6 35 11 45 26 45 17 0 20 -9 23 -72 1 -40 4 26 5 147 1 121 5 304 9 407 l6
188 34 6 33 6 0 233 c0 224 -1 233 -20 238 -12 3 -20 14 -20 26 0 12 -6 21
-14 21 -14 0 -19 24 -32 153 l-6 67 -36 0 c-28 0 -33 3 -24 12 15 15 16 58 2
58 -5 0 -10 11 -10 25 0 16 -6 25 -15 25 -9 0 -15 9 -15 25 0 20 -5 25 -25 25
-18 0 -25 5 -25 19 0 30 -11 51 -26 51 -8 0 -14 5 -14 10 0 6 -11 10 -25 10
-23 0 -25 4 -25 40 0 41 -2 43 -51 54 -21 5 -27 13 -35 53 -7 39 -13 49 -31
51 -15 2 -23 10 -23 23 0 11 -7 22 -15 25 -8 4 -15 15 -15 25 0 10 -4 19 -9
19 -5 0 -11 9 -14 20 -3 12 -14 20 -25 20 -19 0 -21 9 -27 119 l-7 120 -38 6
-38 6 -7 74 -7 74 -39 6 c-36 6 -40 10 -45 46 -6 36 -9 39 -40 39 l-34 0 0 50
c0 38 -4 50 -15 50 -8 0 -15 9 -15 20 0 15 -7 20 -25 20 -24 0 -25 2 -25 75 0
68 -2 75 -20 75 -13 0 -20 7 -20 20 0 15 -7 20 -25 20 -20 0 -25 5 -25 25 0
20 -5 25 -24 25 -18 0 -25 6 -28 23 -3 19 -10 22 -55 25 -49 3 -53 5 -53 28 0
14 -6 24 -14 24 -8 0 -17 7 -20 16 -3 9 -12 14 -19 11 -8 -3 -38 3 -68 13 -38
13 -55 24 -57 38 -2 15 -14 22 -43 27 -29 5 -39 11 -39 26 0 16 -7 19 -40 19
-33 0 -40 3 -40 20 0 15 -9 21 -39 26 -37 6 -40 9 -46 45 -5 31 -11 39 -28 40
-12 1 -26 2 -32 4 -5 1 -16 3 -22 3 -7 1 -13 13 -13 27 0 18 -5 25 -20 25 -11
0 -20 4 -20 9 0 6 -12 16 -27 23 -16 7 -29 23 -31 35 -2 14 -12 23 -30 27 -15
3 -179 8 -364 12 -276 5 -338 9 -338 20 0 8 -7 14 -15 14 -8 0 -15 8 -15 19 0
19 -39 31 -106 31 -29 0 -32 3 -38 39 -5 36 -8 39 -47 45 -29 5 -43 12 -46 26
-3 13 -14 20 -28 20 -14 0 -25 7 -28 19 -6 26 -59 33 -215 31 -70 -2 -169 1
-219 5 -68 6 -93 5 -93 -4 0 -14 -36 -15 -45 -1 -3 6 -46 10 -96 10 l-89 0 0
31 c0 29 -2 31 -28 26 -16 -3 -54 -3 -85 0 l-56 6 -3 41 c-3 40 -4 41 -40 44
-37 3 -38 4 -38 43 l0 39 -45 0 -45 0 0 38 c0 47 -8 58 -45 66 -18 4 -35 16
-40 29 -6 14 -19 22 -35 23 -14 1 -46 2 -72 3 -47 1 -48 1 -54 40 l-6 39 -69
6 c-58 6 -69 10 -69 26 0 15 -10 20 -45 26 -28 4 -45 11 -45 20 0 15 -42 16
-600 15 -325 -1 -363 3 -368 37 l-3 22 -285 0 -284 0 0 -24z m1730 -242 c0
-23 3 -26 25 -22 24 5 25 3 25 -48 l0 -54 -50 0 c-47 0 -50 2 -50 25 0 23 -3
25 -50 25 -42 0 -50 3 -50 19 0 10 -3 33 -6 50 l-6 31 81 0 c81 0 81 0 81 -26z
m-2790 -878 c0 -74 13 -156 25 -156 14 0 25 -107 25 -255 0 -130 7 -165 31
-165 13 0 19 7 19 21 0 15 5 19 15 15 8 -3 28 -3 44 0 27 6 29 9 35 74 l7 69
45 7 c34 5 44 10 44 25 0 16 8 19 53 21 28 1 62 1 75 0 16 0 22 5 22 19 0 12
7 19 20 19 17 0 20 -7 20 -45 0 -41 2 -45 25 -45 23 0 25 -3 25 -50 0 -47 -2
-50 -25 -50 -20 0 -25 5 -25 25 0 18 -5 25 -20 25 -13 0 -20 -7 -20 -20 0 -15
-7 -20 -25 -20 -21 0 -25 -5 -25 -30 0 -25 -4 -30 -25 -30 -15 0 -25 -6 -25
-15 0 -10 -16 -16 -50 -21 l-50 -7 0 -68 c0 -67 -1 -69 -25 -69 -20 0 -25 -5
-25 -24 0 -20 -6 -25 -45 -30 -36 -6 -45 -11 -45 -27 0 -12 -7 -19 -19 -19
-20 0 -31 -39 -31 -112 0 -31 -4 -38 -20 -38 -13 0 -20 -7 -20 -20 0 -15 -7
-20 -25 -20 -23 0 -25 -3 -25 -50 0 -47 -2 -50 -25 -50 -24 0 -25 -2 -25 -65
0 -36 -4 -65 -9 -65 -5 0 -16 -3 -25 -6 -14 -5 -16 9 -16 122 0 151 7 204 26
204 9 0 14 12 14 38 0 20 3 54 7 75 5 33 3 39 -16 44 -11 3 -21 11 -21 17 0 6
-13 17 -30 23 l-30 11 0 161 c0 151 1 161 19 161 25 0 31 40 31 208 l0 132 25
0 c18 0 25 5 25 20 0 15 7 20 25 20 20 0 25 5 25 25 0 18 5 25 20 25 16 0 20
-7 20 -34z m1834 -596 c35 0 44 -3 40 -14 -4 -10 8 -16 45 -21 41 -6 51 -11
51 -26 0 -14 7 -19 25 -19 20 0 25 -5 25 -25 0 -25 0 -25 95 -25 l95 0 0 -26
0 -26 98 4 97 3 3 -27 c4 -38 42 -40 42 -3 0 25 0 25 94 25 90 0 95 -1 98 -22
3 -20 10 -23 51 -26 38 -3 47 -7 47 -22 0 -13 8 -20 28 -22 21 -2 28 -9 30
-30 4 -35 32 -38 32 -4 0 22 5 25 55 31 78 10 145 -1 145 -24 0 -19 40 -31
108 -31 25 0 32 -4 32 -20 0 -17 7 -20 50 -20 47 0 50 -2 50 -25 0 -33 37 -35
42 -2 2 14 11 23 26 25 18 3 22 -1 22 -22 0 -26 1 -26 79 -26 78 0 78 0 73
-25 -3 -20 0 -25 17 -25 16 0 21 6 21 25 0 23 3 25 50 25 47 0 50 -2 50 -25 0
-20 5 -25 25 -25 19 0 25 -5 25 -21 0 -12 8 -23 20 -26 11 -3 20 -14 20 -24 0
-23 11 -29 38 -22 13 3 22 13 22 24 0 12 7 19 20 19 13 0 20 -7 20 -19 0 -15
10 -20 50 -25 41 -5 50 -10 50 -26 0 -13 -7 -20 -20 -20 -13 0 -20 -7 -20 -20
0 -19 -7 -20 -145 -20 -138 0 -145 1 -145 20 0 16 -7 20 -30 20 -29 0 -30 2
-30 45 0 38 -3 45 -20 45 -17 0 -20 -7 -20 -45 l0 -45 -430 0 c-423 0 -430 0
-430 20 0 19 -7 20 -120 20 -119 0 -120 0 -126 25 -6 24 -8 25 -100 25 -94 0
-94 0 -94 25 0 25 0 25 -95 25 -88 0 -95 1 -95 20 0 17 -7 20 -45 20 -38 0
-45 -3 -45 -20 0 -19 -7 -20 -95 -20 -88 0 -95 1 -95 20 0 15 -7 20 -27 22
-16 0 -41 2 -58 4 -51 5 -115 -7 -115 -21 0 -8 10 -15 23 -17 16 -2 23 -11 25
-30 l3 -28 183 0 c199 0 246 -5 246 -26 0 -11 22 -14 100 -14 l100 0 0 -25 0
-25 -194 0 c-194 0 -195 0 -198 23 -3 21 -7 22 -125 25 -115 2 -123 4 -123 22
0 18 -7 20 -77 20 -111 0 -153 9 -153 31 0 11 -9 19 -22 21 -15 2 -24 11 -26
26 -3 22 -1 22 97 22 93 0 101 2 101 19 0 14 -8 21 -27 23 -26 3 -28 7 -31 56
-3 44 -6 52 -23 52 -12 0 -19 7 -19 20 0 13 7 20 20 20 15 0 20 7 20 25 0 23
-4 25 -47 27 -27 1 -57 2 -68 2 -30 2 -32 36 -2 36 22 0 25 5 31 50 7 49 8 50
40 50 61 0 96 11 96 31 0 17 11 19 133 21 72 2 140 0 149 -4 9 -5 37 -8 62 -8z
m724 -616 c77 -6 92 -10 92 -24 0 -15 16 -18 113 -23 61 -4 158 -7 215 -7 95
0 102 -1 102 -20 0 -19 7 -20 170 -20 l170 0 0 -25 0 -25 165 0 c156 0 165 -1
165 -19 0 -17 -9 -20 -72 -23 -40 -2 -160 -2 -265 0 -179 3 -193 4 -193 21 0
26 -38 31 -187 24 -165 -8 -243 1 -243 27 0 17 -9 19 -72 22 -67 3 -73 5 -76
26 -3 21 -7 22 -123 22 l-119 0 0 25 c0 29 5 29 158 19z m-490 -71 c2 -15 10
-23 22 -23 12 0 20 8 22 23 2 16 11 23 31 25 23 3 27 0 27 -22 0 -21 5 -26 25
-26 20 0 25 -5 25 -25 0 -23 4 -25 45 -25 41 0 45 -2 45 -24 0 -21 4 -24 46
-24 26 -1 49 -4 52 -6 12 -12 -10 -36 -33 -36 -18 0 -25 -5 -25 -19 0 -21 -34
-31 -102 -31 -38 0 -40 2 -36 25 5 22 2 25 -23 25 -24 0 -29 4 -29 25 0 21 5
25 30 25 22 0 30 5 30 18 0 16 -10 18 -97 19 -126 0 -193 10 -193 28 0 9 14
15 43 17 38 3 42 6 45 31 3 23 8 28 25 25 14 -2 23 -11 25 -25z m-48 -163 l0
-50 -45 0 c-41 0 -45 2 -45 24 0 18 6 25 23 28 14 2 23 11 25 26 2 14 10 22
23 22 16 0 19 -7 19 -50z m-4700 -35 c0 -25 0 -25 95 -25 l95 0 0 -45 c0 -38
3 -45 20 -45 15 0 20 -7 20 -25 0 -23 3 -25 50 -25 l49 0 3 -72 c3 -67 5 -73
26 -76 23 -3 32 -32 10 -32 -7 0 -30 -3 -50 -6 -34 -6 -38 -4 -38 15 0 16 -6
21 -25 21 -14 0 -25 5 -25 10 0 6 -7 10 -15 10 -10 0 -17 14 -21 40 -6 34 -10
40 -30 40 -19 0 -24 5 -24 25 0 23 -4 25 -52 27 -29 1 -64 1 -77 0 -23 -1 -23
1 -18 48 6 48 5 50 -18 50 -23 0 -25 4 -25 45 0 41 2 45 25 45 20 0 25 -5 25
-25z m5753 -615 c-5 -19 0 -20 71 -20 69 0 76 2 76 20 0 20 7 20 385 20 374 0
385 -1 385 -19 0 -17 10 -21 70 -27 57 -5 70 -10 70 -24 0 -21 -37 -30 -126
-30 -50 0 -64 -3 -64 -15 0 -8 -9 -15 -20 -15 -11 0 -20 7 -20 15 0 9 -9 15
-25 15 -15 0 -25 -6 -25 -14 0 -9 -17 -16 -50 -21 -40 -6 -50 -11 -50 -26 0
-15 -8 -19 -35 -20 -19 -1 -41 -2 -47 -3 -7 -1 -14 9 -16 22 -5 32 -42 30 -42
-3 0 -24 -2 -25 -76 -25 l-76 0 6 -45 7 -45 -55 0 c-53 0 -56 -1 -56 -24 0
-19 6 -25 28 -28 19 -2 28 -9 30 -25 3 -22 7 -23 117 -23 110 0 114 -1 117
-22 2 -15 10 -23 23 -24 11 0 55 -1 98 -2 69 -2 77 -4 77 -21 0 -13 8 -21 23
-23 14 -2 23 -11 25 -25 3 -17 10 -23 28 -23 22 0 24 -4 24 -50 l0 -50 -218 0
-219 0 -9 47 c-10 51 -34 72 -34 29 0 -21 -5 -26 -25 -26 -20 0 -25 -5 -25
-25 0 -34 -47 -37 -52 -2 -3 19 -10 22 -50 25 -43 3 -48 5 -48 28 0 22 -4 24
-45 24 -37 0 -45 3 -45 19 0 15 -10 20 -45 25 -25 4 -50 4 -56 1 -6 -4 -51 -4
-100 0 -76 6 -89 10 -89 25 0 18 -41 30 -107 30 -23 0 -33 5 -33 15 0 9 -9 15
-24 15 -14 0 -28 5 -31 10 -3 6 -15 10 -26 10 -16 0 -19 7 -19 40 0 33 3 40
20 40 17 0 20 7 20 49 l0 48 50 7 50 7 0 39 c0 33 3 40 19 40 13 0 21 -8 23
-22 2 -17 11 -24 31 -26 15 -2 27 -9 27 -18 0 -8 9 -14 20 -14 11 0 20 6 20
14 0 9 12 16 28 18 25 3 27 7 30 56 3 44 6 52 23 52 12 0 19 7 19 20 0 14 7
20 24 20 19 0 23 -4 19 -20z m1537 -340 c0 -63 -2 -70 -20 -70 -18 0 -20 7
-20 70 0 63 2 70 20 70 18 0 20 -7 20 -70z m-630 -279 c0 -14 8 -21 28 -23 21
-2 27 -8 27 -28 0 -29 -23 -36 -92 -25 -34 5 -43 10 -43 26 0 10 7 19 15 19 9
0 20 11 25 25 11 29 40 34 40 6z m2840 -726 c0 -8 -9 -15 -20 -15 -11 0 -20 7
-20 15 0 8 9 15 20 15 11 0 20 -7 20 -15z m-9800 -2600 c0 -16 -6 -25 -15 -25
-9 0 -15 9 -15 25 0 16 6 25 15 25 9 0 15 -9 15 -25z m2658 -92 c3 -21 9 -23
68 -23 62 0 64 -1 64 -25 0 -23 3 -25 50 -25 47 0 50 -2 50 -25 0 -20 5 -25
25 -25 18 0 25 -5 25 -20 0 -16 9 -21 50 -26 44 -6 50 -9 50 -30 0 -23 3 -24
70 -24 68 0 70 -1 70 -25 0 -20 5 -25 25 -25 23 0 25 -4 25 -40 0 -36 3 -40
25 -40 21 0 25 -5 25 -30 0 -23 4 -30 20 -30 15 0 20 -7 20 -25 0 -20 5 -25
24 -25 22 0 25 -5 28 -42 2 -36 7 -44 26 -46 16 -3 22 -10 22 -28 0 -19 5 -24
25 -24 l25 0 2 -117 c3 -158 -1 -398 -8 -505 -6 -79 -8 -87 -28 -90 -13 -2
-22 -11 -24 -25 -2 -13 -10 -23 -18 -23 -8 0 -14 -10 -14 -24 0 -51 -17 -74
-59 -81 -38 -6 -40 -8 -43 -48 -2 -34 -7 -43 -25 -45 -14 -2 -23 -11 -25 -25
-2 -14 -11 -23 -25 -25 -17 -3 -23 -10 -23 -28 0 -19 -5 -24 -25 -24 -18 0
-25 -5 -25 -19 0 -15 -10 -20 -49 -26 -28 -4 -59 -4 -70 0 -18 5 -21 2 -21
-19 0 -24 -3 -26 -50 -26 -42 0 -50 -3 -50 -19 0 -10 -9 -21 -19 -24 -24 -6
-31 0 -31 25 0 15 -8 18 -45 18 -41 0 -45 -2 -45 -25 l0 -25 -170 0 -170 0 0
25 c0 23 -4 25 -45 25 -37 0 -45 3 -45 19 0 20 -39 31 -112 31 -34 0 -38 3
-38 25 0 20 -5 25 -26 25 -20 0 -25 4 -22 23 2 18 -1 21 -19 19 -19 -3 -23 2
-23 22 0 21 -5 26 -24 26 -18 0 -25 6 -28 23 -2 14 -11 23 -25 25 -18 3 -23
10 -23 35 0 69 -12 107 -32 107 -15 0 -19 6 -16 28 2 22 -1 28 -19 30 -17 3
-23 10 -23 28 0 19 -5 24 -25 24 -22 0 -25 4 -25 40 0 36 -3 40 -24 40 l-24 0
-4 198 c-2 108 -2 259 0 334 3 132 4 137 25 140 14 2 23 11 25 26 2 14 10 22
23 22 14 0 19 7 19 25 0 20 5 25 25 25 21 0 25 5 25 30 0 23 5 30 19 30 20 0
31 34 31 95 0 31 2 33 45 39 35 6 45 11 45 26 0 13 8 20 28 22 19 2 28 9 30
25 2 16 12 23 43 28 36 6 40 10 45 45 l6 38 94 7 c79 6 94 10 99 25 6 20 57
27 180 26 54 -1 60 -3 63 -23z m2969 7 c4 -15 17 -21 54 -26 37 -5 49 -11 49
-24 0 -13 11 -19 39 -24 31 -5 40 -11 43 -29 2 -14 11 -23 25 -25 18 -3 23
-12 28 -47 7 -43 7 -43 56 -50 43 -6 49 -10 49 -31 0 -17 6 -24 20 -24 20 0
24 -10 20 -62 -1 -21 4 -27 22 -30 21 -3 23 -9 26 -70 3 -65 4 -68 27 -68 23
0 25 -4 25 -50 0 -47 2 -50 25 -50 25 0 25 -1 25 -83 0 -179 -13 -387 -24
-387 -12 0 -36 -87 -36 -128 0 -13 -6 -22 -15 -22 -10 0 -15 -10 -15 -32 0
-67 -12 -108 -30 -108 -13 0 -19 -12 -24 -49 -6 -49 -7 -49 -50 -55 -32 -5
-45 -12 -49 -26 -3 -12 -14 -20 -26 -20 -14 0 -21 -6 -21 -20 0 -13 -9 -22
-25 -26 -22 -5 -25 -12 -25 -50 0 -38 -4 -46 -25 -54 -14 -5 -25 -17 -25 -25
0 -10 -7 -16 -17 -14 -10 1 -42 1 -70 0 -50 -1 -53 -3 -53 -26 0 -20 -5 -25
-25 -25 -18 0 -25 -5 -25 -19 0 -22 -26 -31 -92 -31 -40 0 -48 -3 -48 -19 0
-14 -10 -20 -37 -25 -49 -8 -164 -8 -242 0 -50 6 -61 10 -61 25 0 16 -8 19
-45 19 -38 0 -45 3 -45 19 0 15 -10 20 -50 26 -39 5 -50 11 -50 25 0 18 -41
30 -107 30 -28 0 -33 3 -33 25 0 20 -5 25 -25 25 -20 0 -25 5 -25 25 0 20 -5
25 -24 25 -18 0 -25 6 -28 23 -2 14 -11 23 -25 25 -15 2 -23 10 -23 24 0 11
-8 22 -19 25 -15 4 -21 15 -23 47 -2 33 -7 42 -25 44 -19 3 -22 11 -25 50 -3
40 -6 47 -25 50 -14 2 -23 11 -25 25 -2 14 -11 23 -25 25 -21 3 -23 9 -23 69
0 55 -3 66 -19 70 -23 6 -31 41 -31 137 0 106 9 146 31 146 17 0 19 8 19 69 0
65 2 70 23 73 20 3 22 9 25 76 3 64 5 72 22 72 17 0 20 7 20 45 0 41 2 45 25
45 20 0 25 5 25 24 0 17 7 26 24 30 15 4 26 14 28 29 2 14 11 23 26 25 16 3
22 10 22 28 0 17 5 24 20 24 15 0 21 9 26 39 6 35 9 39 43 45 20 3 48 6 63 6
20 0 27 6 30 23 3 19 10 22 50 25 39 3 47 6 50 25 2 16 11 23 31 25 19 2 27 9
27 23 0 14 7 19 25 19 18 0 25 5 25 19 0 22 26 31 93 31 43 0 47 2 47 25 l0
25 211 0 c202 0 211 -1 216 -20z"/>
<path d="M8623 12303 c-45 -3 -53 -7 -53 -24 0 -17 7 -19 75 -19 73 0 75 1 75
25 0 20 -5 25 -22 23 -13 -1 -47 -3 -75 -5z"/>
<path d="M8720 12185 c0 -23 3 -25 46 -25 37 0 47 -4 51 -20 4 -13 14 -20 30
-20 22 0 24 3 21 43 l-3 42 -72 3 c-72 3 -73 3 -73 -23z"/>
<path d="M8910 12165 c0 -44 1 -45 31 -45 30 0 31 2 25 31 -3 17 -6 38 -6 45
0 8 -10 14 -25 14 -23 0 -25 -4 -25 -45z"/>
<path d="M9010 12185 c0 -18 5 -25 20 -25 15 0 20 7 20 25 0 18 -5 25 -20 25
-15 0 -20 -7 -20 -25z"/>
<path d="M8620 12185 c0 -9 9 -15 25 -15 16 0 25 6 25 15 0 9 -9 15 -25 15
-16 0 -25 -6 -25 -15z"/>
<path d="M9110 12135 c0 -18 5 -25 20 -25 15 0 20 7 20 25 0 18 -5 25 -20 25
-15 0 -20 -7 -20 -25z"/>
<path d="M9400 12045 c0 -8 9 -15 20 -15 11 0 20 7 20 15 0 8 -9 15 -20 15
-11 0 -20 -7 -20 -15z"/>
<path d="M9684 11993 c0 -12 -7 -19 -21 -21 -15 -2 -23 -10 -23 -23 0 -17 7
-19 65 -19 58 0 65 2 65 20 0 13 -7 20 -20 20 -13 0 -20 7 -20 20 0 14 -7 20
-24 20 -17 0 -23 -5 -22 -17z"/>
<path d="M9930 11905 c0 -16 6 -25 15 -25 9 0 15 9 15 25 0 16 -6 25 -15 25
-9 0 -15 -9 -15 -25z"/>
<path d="M9450 10600 c0 -11 7 -20 15 -20 8 0 15 9 15 20 0 11 -7 20 -15 20
-8 0 -15 -9 -15 -20z"/>
<path d="M10020 10600 c0 -13 7 -20 20 -20 13 0 20 7 20 20 0 13 -7 20 -20 20
-13 0 -20 -7 -20 -20z"/>
<path d="M6108 6683 c-9 -2 -18 -14 -20 -26 -2 -14 -11 -23 -25 -25 -14 -2
-23 -11 -25 -25 -2 -14 -11 -23 -24 -25 -12 -2 -24 -12 -27 -23 -3 -11 -14
-19 -26 -19 -19 0 -21 -6 -22 -52 -1 -29 -1 -61 0 -70 2 -13 -5 -18 -23 -18
-25 0 -26 -2 -26 -70 0 -68 -1 -70 -25 -70 l-25 0 0 -102 c0 -57 3 -133 7
-170 5 -57 9 -68 24 -68 16 0 19 -8 19 -46 0 -37 4 -47 20 -51 15 -4 20 -14
20 -38 0 -18 3 -59 6 -93 l7 -60 48 -7 c39 -6 49 -11 49 -26 0 -14 7 -19 25
-19 18 0 25 -5 25 -20 0 -13 7 -20 20 -20 15 0 20 -7 20 -25 0 -21 5 -25 29
-25 15 0 49 -3 75 -6 36 -5 46 -11 46 -25 0 -18 10 -19 145 -19 138 0 145 1
145 20 0 18 7 20 65 20 62 0 65 1 65 24 0 19 6 25 28 28 25 3 27 7 30 51 3 42
5 47 28 47 17 0 24 5 24 19 0 13 8 21 23 23 16 2 23 11 25 31 2 15 9 27 18 27
8 0 19 18 26 45 7 25 17 45 24 45 14 0 24 55 24 133 0 50 2 57 20 57 15 0 20
7 20 25 0 16 -6 25 -15 25 -11 0 -15 13 -15 53 0 28 -3 82 -7 120 -5 62 -8 67
-29 67 -22 0 -24 4 -24 45 0 41 -2 45 -25 45 -20 0 -25 5 -25 25 0 20 -5 25
-25 25 -20 0 -25 5 -25 25 0 18 -5 25 -20 25 -14 0 -20 7 -20 24 0 21 -6 25
-50 31 -40 6 -50 11 -50 26 0 14 -7 19 -25 19 -20 0 -25 5 -25 25 0 18 -5 25
-20 25 -15 0 -20 7 -20 25 l0 25 -222 -1 c-123 -1 -231 -3 -240 -6z m362 -212
c0 -18 6 -21 45 -21 l45 0 0 -145 0 -145 -25 0 c-20 0 -25 -5 -25 -25 0 -23
-4 -25 -45 -25 -41 0 -45 -2 -45 -25 0 -23 -4 -25 -45 -25 -41 0 -45 2 -45 25
0 21 -5 25 -30 25 -29 0 -30 2 -30 44 0 35 -4 45 -20 49 -14 3 -20 14 -20 31
0 21 -5 26 -25 26 -25 0 -25 2 -24 65 1 61 3 65 25 65 20 0 24 5 24 30 0 25 4
30 25 30 18 0 25 5 25 18 0 16 11 19 95 21 90 2 95 1 95 -18z"/>
<path d="M8803 6683 c-12 -2 -25 -13 -28 -24 -4 -10 -15 -19 -26 -19 -14 0
-19 -7 -19 -25 0 -20 -5 -25 -26 -25 -17 0 -28 -6 -31 -20 -4 -14 -17 -21 -49
-26 -33 -5 -44 -11 -44 -24 0 -13 -11 -19 -44 -24 l-43 -7 -7 -52 c-3 -29 -6
-69 -6 -89 0 -31 -4 -38 -20 -38 -16 0 -20 -7 -20 -30 0 -25 -4 -30 -25 -30
l-25 0 0 -124 c0 -157 9 -246 25 -246 7 0 15 -21 19 -50 5 -39 11 -50 25 -50
14 0 20 -10 25 -46 3 -26 6 -60 6 -75 0 -30 15 -36 73 -31 11 1 21 -6 24 -17
3 -13 17 -22 43 -26 30 -5 40 -12 42 -28 2 -14 11 -23 26 -25 14 -2 22 -10 22
-22 0 -18 10 -20 123 -22 118 -3 122 -4 125 -25 5 -35 52 -32 52 2 0 23 4 25
45 25 38 0 45 3 45 20 0 18 7 20 64 20 35 0 77 3 94 6 28 6 32 11 38 49 4 31
12 45 25 48 16 4 19 15 19 71 0 59 2 66 19 66 14 0 21 8 23 28 2 19 9 28 24
30 20 3 22 11 29 98 6 83 9 94 26 94 17 0 19 8 19 70 0 62 -2 70 -19 70 -16 0
-21 10 -26 55 -4 30 -5 72 -3 95 3 36 1 40 -19 40 -21 0 -23 5 -23 45 0 41 -2
45 -24 45 -21 0 -24 6 -30 50 -5 41 -10 50 -26 50 -15 0 -20 7 -20 24 0 19 -6
25 -27 28 -22 2 -28 8 -26 26 3 21 -1 22 -67 22 -68 0 -70 1 -70 25 l0 25
-142 -1 c-79 -1 -153 -4 -165 -6z m246 -189 l61 -7 0 -163 c0 -157 -1 -164
-20 -164 -15 0 -20 -7 -20 -25 0 -21 -5 -25 -30 -25 -25 0 -30 -4 -30 -25 l0
-25 -114 0 -113 0 -7 38 c-3 20 -6 65 -6 100 0 59 -1 62 -25 62 -23 0 -25 4
-25 45 0 41 2 45 25 45 20 0 25 5 25 25 0 20 5 25 25 25 23 0 25 3 25 50 l0
50 84 0 c45 0 111 -3 145 -6z"/>
<path d="M3820 8005 c0 -21 5 -25 30 -25 25 0 30 4 30 25 0 21 -5 25 -30 25
-25 0 -30 -4 -30 -25z"/>
<path d="M3920 7380 c0 -15 7 -20 25 -20 18 0 25 5 25 20 0 15 -7 20 -25 20
-18 0 -25 -5 -25 -20z"/>
<path d="M8966 4131 c-4 -5 -3 -16 0 -25 5 -13 -2 -16 -45 -16 -44 0 -51 -3
-51 -20 0 -18 -7 -20 -70 -20 -68 0 -70 -1 -70 -25 0 -23 -3 -25 -50 -25 -47
0 -50 -2 -50 -25 0 -24 -2 -25 -68 -25 -117 0 -222 -12 -222 -25 0 -15 -255
-25 -650 -25 -355 0 -500 -8 -500 -27 0 -10 -37 -13 -188 -13 -104 0 -224 -3
-266 -7 l-77 -6 3 -46 3 -46 48 -3 c39 -3 47 -6 47 -23 0 -15 7 -19 34 -19 74
0 156 -13 156 -25 0 -13 51 -25 108 -25 25 0 32 -4 32 -20 0 -18 7 -20 78 -22
42 -1 109 -4 147 -6 111 -5 886 -2 933 5 31 4 42 10 42 23 0 19 51 30 138 30
30 0 49 5 57 16 9 13 35 18 109 22 88 4 97 7 93 23 -4 13 2 19 22 21 18 2 27
10 29 25 3 18 12 24 43 29 22 4 39 12 39 19 0 8 20 16 50 20 44 6 50 10 50 30
0 21 5 24 48 27 40 3 47 6 50 26 2 14 10 22 23 22 13 0 19 7 19 24 0 18 6 25
23 28 20 3 22 9 25 71 l3 67 -70 0 c-38 0 -72 -4 -75 -9z"/>
<path d="M4690 2560 l0 -80 40 0 40 0 0 -40 0 -40 40 0 40 0 0 -287 c0 -159 3
-345 7 -415 l6 -128 39 0 c21 0 38 -4 38 -10 0 -6 30 -10 70 -10 67 0 70 -1
70 -24 0 -23 3 -24 95 -31 84 -7 95 -10 95 -26 0 -16 8 -19 50 -19 47 0 50 -2
50 -25 l0 -25 215 0 c208 0 215 -1 215 -20 0 -19 7 -20 120 -20 l120 0 0 45
c0 41 -2 45 -25 45 -20 0 -25 5 -25 25 0 20 -5 25 -25 25 -18 0 -25 5 -25 19
0 16 -9 21 -45 27 l-45 6 0 68 0 68 -50 7 c-33 5 -50 12 -50 21 0 8 -10 14
-22 14 -21 0 -23 4 -20 49 4 48 3 50 -25 53 -26 3 -28 7 -31 51 -3 42 -5 47
-28 47 -19 0 -24 5 -24 25 0 23 -4 25 -45 25 -50 0 -48 -3 -45 92 l1 47 -48 3
c-41 3 -48 6 -51 26 -2 14 -10 22 -23 22 -14 0 -19 7 -19 25 0 18 5 25 20 25
29 0 27 38 -2 42 -15 2 -24 11 -26 26 -2 13 -10 22 -21 22 -14 0 -17 6 -13 25
2 14 11 25 18 25 8 0 14 10 14 25 0 25 -1 25 -89 25 -85 0 -90 1 -93 23 -3 19
-10 22 -50 25 -43 3 -48 5 -48 28 0 19 -5 24 -25 24 -18 0 -25 5 -25 19 0 16
-11 19 -95 26 -90 6 -95 8 -95 30 0 18 -4 21 -25 17 -20 -3 -25 0 -25 17 0 11
-4 21 -10 21 -5 0 -10 -7 -10 -15 0 -8 -7 -15 -15 -15 -8 0 -15 7 -15 15 0 9
-9 15 -25 15 -25 0 -25 -1 -25 -80z"/>
<path d="M4607 2603 c-13 -12 -7 -23 13 -23 11 0 20 7 20 15 0 15 -21 21 -33
8z"/>
<path d="M4781 2344 c0 -11 3 -14 6 -6 3 7 2 16 -1 19 -3 4 -6 -2 -5 -13z"/>
<path d="M5560 2290 c0 -13 7 -20 20 -20 13 0 20 7 20 20 0 13 -7 20 -20 20
-13 0 -20 -7 -20 -20z"/>
<path d="M6090 1381 c0 -15 6 -21 21 -21 14 0 19 5 17 17 -5 26 -38 29 -38 4z"/>
</g>
</svg>
